<svg xmlns="http://www.w3.org/2000/svg" viewBox="0 0 455.02 491"><defs><style>.cls-1{fill:#ff4d4d;}.cls-2{fill:#fff;}.cls-3{fill:#ffd176;}.cls-4{fill:#ffa88a;}.cls-5{fill:#f99900;}.cls-5,.cls-7{opacity:0.5;}.cls-6{fill:#e8e3dd;}.cls-7{fill:#d22;}.cls-8{fill:#e8866b;}.cls-9{fill:#010101;}</style></defs><title>Fichier 17</title><g id="Calque_2" data-name="Calque 2"><g id="final"><path class="cls-1" d="M163.51,415.5l-17.62-64c-43.47,1-54.38,7-54.38,7s-18,30-19,31-16,34-16,97H209l-1.5-59Z"/><path class="cls-1" d="M261.51,425.5l-2,60s-.15.37-.39,1H412.51s11.09-90.27-52-123.78C332.51,421.93,261.51,425.5,261.51,425.5Z"/><circle class="cls-2" cx="408.01" cy="278" r="37"/><rect class="cls-2" x="126.01" y="114" width="216" height="36" rx="7"/><path class="cls-3" d="M342,208a107.15,107.15,0,0,1-3,25.31,4.16,4.16,0,0,1-6,2.72c-22-11.68-57-18.94-97.8-19h-1c-39.81.09-74.1,7-96.17,18.19a5.14,5.14,0,0,1-7.37-3.39,107.25,107.25,0,0,1,8.68-71.8h189a3.61,3.61,0,0,1,3.27,2A107.36,107.36,0,0,1,342,208Zm-42-22.84a5,5,0,1,0-10,0,13.68,13.68,0,1,1-27.36,0,5,5,0,0,0-10,0,23.68,23.68,0,0,0,47.36,0Zm-82.64,0a5,5,0,1,0-10,0,13.68,13.68,0,1,1-27.36,0,5,5,0,1,0-10,0,23.68,23.68,0,1,0,47.36,0Z"/><path class="cls-2" d="M235,227c41,.07,67.35,7,82.26,12.85,17.67,6.9,29,16.19,30.2,24.86,1,7.24,1.1,17.14-4.41,23.25-4,4.38-10.5,6.42-19.44,6a5,5,0,0,0-5,6.32c2.48,9.08.43,17.83-5.47,23.41-6.67,6.31-17,7.56-29.12,3.53a5,5,0,0,0-6.57,4.36c-.7,9.1-5.4,15.81-12.88,18.39-8.66,3-18.92-.18-26.15-8.07a5,5,0,0,0-7.37,0c-7.23,7.89-17.49,11.06-26.15,8.07-7.48-2.58-12.18-9.29-12.88-18.39a5,5,0,0,0-6.56-4.36c-12.12,4-22.46,2.78-29.13-3.53-5.9-5.58-8-14.33-5.47-23.41a5,5,0,0,0-5-6.32c-8.92.38-15.47-1.66-19.43-6-5.52-6.11-5.45-16-4.41-23.25,1.23-8.67,12.52-18,30.2-24.86,14.91-5.82,41.28-12.78,82.25-12.85H235Zm37.58,30.29a5,5,0,0,0-5.15-8.58c-36.38,21.83-64.15,1.26-65.37.33A5,5,0,1,0,196,257a65.43,65.43,0,0,0,37.8,11.81C245,268.76,258.26,265.88,272.58,257.29Z"/><path class="cls-4" d="M159.28,431.58a2.8,2.8,0,0,1-1.72,3,2.76,2.76,0,0,1-3.32-.7q-3-3.3-6.08-6.47l-.45-.45c-33.92-34.22-80.47-56.46-82.57-57.45a5,5,0,0,0-4.27,9c.08,0,1.45.69,3.82,1.91a5.64,5.64,0,0,1,2.42,7.67c-5.35,10-11.63,29.14-14.07,65a4.27,4.27,0,0,1-6.67,3.24c-18.71-13-30.33-29.95-34.6-50.66-6.3-30.54,5.5-62.63,19.13-79.53,8.94-11.09,21.52-14.47,37.38-10A79.52,79.52,0,0,1,91,327,5,5,0,0,0,97,319a88.68,88.68,0,0,0-25.73-12.41l-.5-.14c9.28-3.86,18.75-3.7,28.27.51,14.07,6.22,27.15,20.7,37.82,41.88C148.2,371.35,156,400,159.28,431.58Z"/><path class="cls-1" d="M377.27,63.84c32,38.77,42.7,94.9,31,162.64a5.75,5.75,0,0,1-5.08,4.77,46.8,46.8,0,0,0-26.8,12,63.41,63.41,0,0,0-21.64-25.87,6.52,6.52,0,0,1-2.83-5.63c.05-1.25.08-2.5.08-3.75a117.52,117.52,0,0,0-9.46-46.11,3.55,3.55,0,0,1,1.35-4.42A17,17,0,0,0,352,143V121a17,17,0,0,0-10.18-15.56,3.57,3.57,0,0,1-2.17-2.89v0a3.52,3.52,0,0,1,.06-1.12l5.12-23.12a5.13,5.13,0,0,0-3.29-6,5,5,0,0,0-6.42,3.68,2.05,2.05,0,0,1-3.81.52,70.43,70.43,0,0,0-8.58-12.76,5,5,0,0,0-7.48,6.63c.13.15,10.79,12.43,13.9,29.54A3.52,3.52,0,0,1,325.7,104H142.85a4.2,4.2,0,0,1-4.18-4.69c1.64-13.84,7.36-39.94,27.25-60.16C184.94,19.81,212.56,10,248,10,303.46,10,348.16,28.62,377.27,63.84Z"/><path class="cls-2" d="M259.51,485.5l2-60s71-3.57,99-62.78c-10.25-5.45-22.46-9.4-37-11.22-33,20-58,35-89,35s-73-20-88-35l-.62,0,17.62,64,44,12,1.5,59h50.11C259.36,485.87,259.51,485.5,259.51,485.5Z"/><path class="cls-5" d="M126.51,183.5s84-37,218,0c-9-28-8-28-8-28h-204Z"/><path class="cls-6" d="M125.51,131.5h222v17l-8,7h-207s-12-3-11-7-3-18-2-17S125.51,131.5,125.51,131.5Z"/><path class="cls-6" d="M211.51,281.5s23,13,48,0C250.51,300.5,226.51,305.5,211.51,281.5Z"/><path class="cls-6" d="M425.35,239.81a40.88,40.88,0,0,1-55.53,55.54,40.88,40.88,0,1,0,55.53-55.54Z"/><path class="cls-6" d="M148.51,351.5s45,35,83,35,92-35,92-35-31,51-89,51-86-40-86-40Z"/><path class="cls-7" d="M146.51,56.5s-4,42,87,42,86-31,86-31l14,31v11l-201-3Z"/><path class="cls-7" d="M347.51,138.24s6,35.26,30,34.26,30-47,30-66c15,41,5,126,5,126l-38,18s-12-23-14-24-12-4-13-5-3-46-3-46l-11-20,11-5.5Z"/><path class="cls-7" d="M166.51,473.5s1-31,15-31,28,19,28,19l2-35-40-8s-4-6-5-4,0,16,0,17-4,8-4,8l-9-1Z"/><path class="cls-7" d="M259.51,464.5l2-40s64-4,99-60c21,10,39,28,46,57-33-25-44-25-62-13S275.51,440.5,259.51,464.5Z"/><path class="cls-8" d="M10.51,387.5s1,22,22,22,29-35,29-35l13,8s-18,43-18,84C34.51,466.5-4.49,419.5,10.51,387.5Z"/><path class="cls-8" d="M97.51,392.5s66,48,51-30c15,46,14,70,14,70L155.16,443,138.51,428.5Z"/><polygon class="cls-8" points="94.51 322.5 81.51 300.5 68.51 303.5 62.51 308.5 94.51 322.5"/><path class="cls-9" d="M422.36,233.24a47,47,0,1,1-53.26,18.44,56.38,56.38,0,0,0-9.55-16.54,6.55,6.55,0,0,0-11.35,2.51c-.4,1.56-.84,3.1-1.31,4.64a4.2,4.2,0,0,0,1.08,4.26c5.29,5.13,8.54,10.75,9.4,16.74,1.91,13.42-.47,24.27-6.9,31.37-5,5.5-12,8.6-21.07,9.26,1.05,10.38-2.32,20.37-9.41,27.08-8.19,7.75-20.2,10.32-33.52,7.32-2.47,10.16-9.17,17.87-18.66,21.14a30.26,30.26,0,0,1-10,1.66,36,36,0,0,1-23.13-8.87c-9.62,8.15-22.14,11-33.1,7.21-9.49-3.27-16.18-11-18.65-21.14-13.33,3-25.33.43-33.53-7.32-7.09-6.71-10.46-16.7-9.41-27.08-9-.66-16.1-3.76-21.07-9.26-6.43-7.1-8.81-18-6.89-31.37.85-6,4.11-11.61,9.39-16.73a5.15,5.15,0,0,0,1.41-5.17,117.3,117.3,0,0,1,5.7-82A17,17,0,0,1,116,143V121A17,17,0,0,1,126,105.54a4.1,4.1,0,0,0,2.34-3.41c1.09-13.81,6.26-45.29,30.42-69.91C179.69,10.84,209.74,0,248,0c28.8,0,55.17,4.91,78.37,14.58,23.44,9.77,43.15,24.2,58.6,42.89,33.73,40.82,45.21,99.24,33.39,169.33A5.77,5.77,0,0,0,422.36,233.24ZM445,278a37,37,0,1,0-37,37A37,37,0,0,0,445,278Zm-36.73-51.52c11.69-67.74,1-123.87-31-162.64C348.17,28.62,303.47,10,248,10c-35.45,0-63.07,9.81-82.09,29.15C146,59.37,140.32,85.47,138.68,99.31a4.2,4.2,0,0,0,4.18,4.69H325.71a3.52,3.52,0,0,0,3.46-4.15c-3.11-17.11-13.77-29.39-13.9-29.54a5,5,0,0,1,7.48-6.63,70.43,70.43,0,0,1,8.58,12.76,2.05,2.05,0,0,0,3.81-.52,5,5,0,0,1,6.42-3.68,5.13,5.13,0,0,1,3.29,6l-5.12,23.12a3.52,3.52,0,0,0-.06,1.12v0a3.57,3.57,0,0,0,2.17,2.89A17,17,0,0,1,352,121v22a17,17,0,0,1-8.11,14.47,3.55,3.55,0,0,0-1.35,4.42A117.52,117.52,0,0,1,352,208c0,1.25,0,2.5-.08,3.75a6.52,6.52,0,0,0,2.83,5.63,63.41,63.41,0,0,1,21.64,25.87,46.8,46.8,0,0,1,26.8-12A5.75,5.75,0,0,0,408.29,226.48ZM343.06,288c5.51-6.11,5.44-16,4.41-23.25-1.24-8.67-12.53-18-30.2-24.86C302.36,234,276,227.07,235,227h-.59c-41,.07-67.34,7-82.25,12.85-17.68,6.9-29,16.19-30.2,24.86-1,7.24-1.11,17.14,4.41,23.25,4,4.38,10.51,6.42,19.43,6a5,5,0,0,1,5,6.32c-2.48,9.08-.43,17.83,5.47,23.41,6.67,6.31,17,7.57,29.13,3.53a5,5,0,0,1,6.56,4.36c.7,9.1,5.4,15.81,12.88,18.39,8.66,3,18.92-.18,26.15-8.07a5,5,0,0,1,7.37,0c7.23,7.89,17.49,11.06,26.15,8.07,7.48-2.58,12.18-9.29,12.88-18.39a5,5,0,0,1,6.57-4.36c12.11,4,22.45,2.78,29.12-3.53,5.9-5.58,7.95-14.33,5.47-23.41a5,5,0,0,1,5-6.32C332.56,294.38,339.09,292.34,343.06,288Zm-1-145V121a7,7,0,0,0-7-7H133a7,7,0,0,0-7,7v22a7,7,0,0,0,7,7H335A7,7,0,0,0,342,143Zm-3,90.31A107.16,107.16,0,0,0,331.66,162a3.61,3.61,0,0,0-3.27-2h-189a107.25,107.25,0,0,0-8.68,71.8,5.14,5.14,0,0,0,7.37,3.39c22.07-11.19,56.36-18.1,96.17-18.19h1c40.8.09,75.8,7.35,97.8,19A4.16,4.16,0,0,0,339,233.31Z"/><path class="cls-9" d="M418,486a5,5,0,0,1-5.49,5,5.16,5.16,0,0,1-4.51-5.22c0-57.27-12.15-92.93-40.08-112.56a6.18,6.18,0,0,0-8.52,1.46c-23.84,32.59-55,51.73-89.26,54.88a5.62,5.62,0,0,0-5.14,5.58V486a5,5,0,0,1-5.49,5,5.15,5.15,0,0,1-4.51-5.19V425a5,5,0,0,1,5-5c33.89,0,65.12-17,89.1-48.22a6.2,6.2,0,0,0-2.87-9.61A131.53,131.53,0,0,0,325,356.7a6.19,6.19,0,0,0-4.72,1.15c-34.48,25.53-69.12,36.18-103,31.67-24.39-3.25-44.19-13.76-58.53-24.25a2.06,2.06,0,0,0-3.17,2.32A259.29,259.29,0,0,1,165.09,403a3.85,3.85,0,0,0,1,1.93c4,4.15,16.91,15,43.92,15a5,5,0,0,1,5,5v61a5,5,0,0,1-5.49,5,5.15,5.15,0,0,1-4.51-5.2V435.09a5.62,5.62,0,0,0-5.05-5.58,76.48,76.48,0,0,1-25.5-6.79,4,4,0,0,0-5.65,4.08c.15,1.24.29,2.49.42,3.73a12.71,12.71,0,0,1-7.62,13.16c-.4.18-.8.33-1.21.47a121.77,121.77,0,0,1,10.35,25.25A5,5,0,0,1,166,476a5,5,0,0,1-4.79-3.6c-4.7-16.12-11.47-28.86-20.11-37.93-18.28-18.54-40.93-33.71-57.5-43.55a5.61,5.61,0,0,0-7.84,2.22C70.22,403.74,62,429,62,486a5,5,0,0,1-5.48,5,5.15,5.15,0,0,1-4.52-5.2c0-4,0-7.87.12-11.6A4.28,4.28,0,0,0,50,470.37C24,455.54,7.4,433.94,2,407.69c-7-33.9,5.59-68.54,21.14-87.83,8.22-10.19,19-15.45,31.66-15.64a3.53,3.53,0,0,1,.28-.25c15.23-11.19,31.84-13.33,48-6.18,13.88,6.13,26.48,18.8,37,36.24.06.08.14.14.2.22.46.6,30.3,39,78.41,45.37C251,383.9,284.45,372.94,318,347a5,5,0,0,1,3.78-1c35,5.15,59.51,19.25,75,43.11C411.25,411.58,418,442.36,418,486ZM157.57,434.55a2.8,2.8,0,0,0,1.72-3C156,400,148.21,371.35,136.85,348.82,126.18,327.64,113.1,313.16,99,306.94c-9.52-4.21-19-4.37-28.27-.51l.5.14A88.68,88.68,0,0,1,97,319a5,5,0,0,1-5.94,8,79.52,79.52,0,0,0-22.76-10.91c-15.86-4.45-28.44-1.07-37.38,10-13.63,16.9-25.43,49-19.13,79.53,4.27,20.71,15.89,37.7,34.6,50.66a4.27,4.27,0,0,0,6.67-3.24c2.44-35.85,8.72-55,14.07-65a5.64,5.64,0,0,0-2.42-7.67c-2.37-1.22-3.74-1.87-3.82-1.91a5,5,0,0,1,4.27-9c2.1,1,48.65,23.23,82.57,57.45l.45.45q3.12,3.17,6.08,6.47A2.76,2.76,0,0,0,157.57,434.55Z"/><path class="cls-9" d="M295,180.16a5,5,0,0,1,5,5,23.68,23.68,0,0,1-47.36,0,5,5,0,1,1,10,0,13.68,13.68,0,0,0,27.36,0A5,5,0,0,1,295,180.16Z"/><path class="cls-9" d="M274.3,250.43a5,5,0,0,1-1.71,6.86c-14.32,8.59-27.55,11.47-38.83,11.47A65.43,65.43,0,0,1,196,257a5,5,0,1,1,6.11-7.91c1.22.93,29,21.5,65.37-.33A5,5,0,0,1,274.3,250.43Z"/><path class="cls-9" d="M212.38,180.16a5,5,0,0,1,5,5,23.68,23.68,0,0,1-47.36,0,5,5,0,0,1,10,0,13.68,13.68,0,0,0,27.36,0A5,5,0,0,1,212.38,180.16Z"/></g></g></svg>