<svg xmlns="http://www.w3.org/2000/svg" id="Layer_1" width="122.8" height="122.8">
	<g id="g28" transform="translate(-73.6 -73.6)">
		<g id="g8">
			<path id="path4" fill="#e01e5a" d="M99.4 151.2c0 7.1-5.8 12.9-12.9 12.9-7.1 0-12.9-5.8-12.9-12.9 0-7.1 5.8-12.9 12.9-12.9h12.9z" class="st0"/>
			<path id="path6" fill="#e01e5a" d="M105.9 151.2c0-7.1 5.8-12.9 12.9-12.9 7.1 0 12.9 5.8 12.9 12.9v32.3c0 7.1-5.8 12.9-12.9 12.9-7.1 0-12.9-5.8-12.9-12.9z" class="st0"/>
		</g>
		<g id="g14">
			<path id="path10" fill="#36c5f0" d="M118.8 99.4c-7.1 0-12.9-5.8-12.9-12.9 0-7.1 5.8-12.9 12.9-12.9 7.1 0 12.9 5.8 12.9 12.9v12.9z" class="st1"/>
			<path id="path12" fill="#36c5f0" d="M118.8 105.9c7.1 0 12.9 5.8 12.9 12.9 0 7.1-5.8 12.9-12.9 12.9H86.5c-7.1 0-12.9-5.8-12.9-12.9 0-7.1 5.8-12.9 12.9-12.9z" class="st1"/>
		</g>
		<g id="g20">
			<path id="path16" fill="#2eb67d" d="M170.6 118.8c0-7.1 5.8-12.9 12.9-12.9 7.1 0 12.9 5.8 12.9 12.9 0 7.1-5.8 12.9-12.9 12.9h-12.9z" class="st2"/>
			<path id="path18" fill="#2eb67d" d="M164.1 118.8c0 7.1-5.8 12.9-12.9 12.9-7.1 0-12.9-5.8-12.9-12.9V86.5c0-7.1 5.8-12.9 12.9-12.9 7.1 0 12.9 5.8 12.9 12.9z" class="st2"/>
		</g>
		<g id="g26">
			<path id="path22" fill="#ecb22e" d="M151.2 170.6c7.1 0 12.9 5.8 12.9 12.9 0 7.1-5.8 12.9-12.9 12.9-7.1 0-12.9-5.8-12.9-12.9v-12.9z" class="st3"/>
			<path id="path24" fill="#ecb22e" d="M151.2 164.1c-7.1 0-12.9-5.8-12.9-12.9 0-7.1 5.8-12.9 12.9-12.9h32.3c7.1 0 12.9 5.8 12.9 12.9 0 7.1-5.8 12.9-12.9 12.9z" class="st3"/>
		</g>
	</g>
</svg>