<?xml version="1.0" encoding="UTF-8" standalone="no"?>
<svg
   width="396.5"
   height="329"
   viewBox="0 0 396.5 328.99999"
   fill="none"
   version="1.1"
   id="svg235"
   sodipodi:docname="webex-logo.svg"
   inkscape:version="1.1.2 (0a00cf5339, 2022-02-04)"
   xmlns:inkscape="http://www.inkscape.org/namespaces/inkscape"
   xmlns:sodipodi="http://sodipodi.sourceforge.net/DTD/sodipodi-0.dtd"
   xmlns="http://www.w3.org/2000/svg"
   xmlns:svg="http://www.w3.org/2000/svg">
  <sodipodi:namedview
     id="namedview237"
     pagecolor="#ffffff"
     bordercolor="#666666"
     borderopacity="1.0"
     inkscape:pageshadow="2"
     inkscape:pageopacity="0.0"
     inkscape:pagecheckerboard="0"
     showgrid="false"
     inkscape:zoom="1.4199219"
     inkscape:cx="139.09216"
     inkscape:cy="125.00688"
     inkscape:window-width="3440"
     inkscape:window-height="1415"
     inkscape:window-x="0"
     inkscape:window-y="0"
     inkscape:window-maximized="1"
     inkscape:current-layer="svg235"
     fit-margin-top="20"
     fit-margin-bottom="20"
     fit-margin-left="0"
     fit-margin-right="0" />
  <g
     clip-path="url(#clip0)"
     id="g64"
     transform="translate(-58.1699,-91.5)">
    <path
       d="m 181.196,399.355 c -73.419,0 -98.4071,-92.978 -104.0062,-111.066 -14.061,-45.42 -18.3355,-86.333 -18.788,-90.627 -2.611,-24.775 17.2321,-42.015 39.0102,-42.015 16.49,0 35.628,9.884 38.163,33.866 0.44,4.034 3.792,38.823 15.652,76.73 12.376,39.562 25.506,54.776 34.961,54.776 15.269,0 24.585,-39.272 32.821,-76.666 6.068,-27.549 12.627,-55.31 25.576,-79.97 22.529,-42.9 56.572,-52.883 85.982,-52.883 64.488,0 96.764,74.819 96.764,94.204 0,32.395 -26.385,40.658 -37.821,40.658 -25.013,0 -33.492,-16.783 -40.629,-31.493 -6.419,-13.234 -13.124,-24.238 -21.792,-24.238 -2.848,0 -5.488,1.445 -7.929,3.93 -21.545,21.928 -28.769,136.644 -71.847,180.488 -23.882,24.306 -49.867,24.306 -66.117,24.306 z"
       fill="url(#paint0_linear)"
       id="path2"
       style="fill:url(#paint0_linear)" />
    <path
       d="m 181.196,399.355 c -73.419,0 -98.4071,-92.978 -104.0062,-111.066 -14.061,-45.42 -18.3355,-86.333 -18.788,-90.627 -2.611,-24.775 17.2321,-42.015 39.0102,-42.015 16.49,0 35.628,9.884 38.163,33.866 0.44,4.034 3.792,38.823 15.652,76.73 12.376,39.562 25.506,54.776 34.961,54.776 15.269,0 24.585,-39.272 32.821,-76.666 6.068,-27.549 12.627,-55.31 25.576,-79.97 22.529,-42.9 56.572,-52.883 85.982,-52.883 64.488,0 96.764,74.819 96.764,94.204 0,32.395 -26.385,40.658 -37.821,40.658 -25.013,0 -33.492,-16.783 -40.629,-31.493 -6.419,-13.234 -13.124,-24.238 -21.792,-24.238 -2.848,0 -5.488,1.445 -7.929,3.93 -21.545,21.928 -28.769,136.644 -71.847,180.488 -23.882,24.306 -49.867,24.306 -66.117,24.306 z"
       fill="url(#paint1_radial)"
       id="path4"
       style="fill:url(#paint1_radial)" />
    <path
       d="m 181.196,399.355 c -73.419,0 -98.4071,-92.978 -104.0062,-111.066 -14.061,-45.42 -18.3355,-86.333 -18.788,-90.627 -2.611,-24.775 17.2321,-42.015 39.0102,-42.015 16.49,0 35.628,9.884 38.163,33.866 0.44,4.034 3.792,38.823 15.652,76.73 12.376,39.562 25.506,54.776 34.961,54.776 15.269,0 24.585,-39.272 32.821,-76.666 6.068,-27.549 12.627,-55.31 25.576,-79.97 22.529,-42.9 56.572,-52.883 85.982,-52.883 64.488,0 96.764,74.819 96.764,94.204 0,32.395 -26.385,40.658 -37.821,40.658 -25.013,0 -33.492,-16.783 -40.629,-31.493 -6.419,-13.234 -13.124,-24.238 -21.792,-24.238 -2.848,0 -5.488,1.445 -7.929,3.93 -21.545,21.928 -28.769,136.644 -71.847,180.488 -23.882,24.306 -49.867,24.306 -66.117,24.306 z"
       fill="url(#paint2_radial)"
       id="path6"
       style="fill:url(#paint2_radial)" />
    <path
       d="m 181.196,399.355 c -73.419,0 -98.4071,-92.978 -104.0062,-111.066 -14.061,-45.42 -18.3355,-86.333 -18.788,-90.627 -2.611,-24.775 17.2321,-42.015 39.0102,-42.015 16.49,0 35.628,9.884 38.163,33.866 0.44,4.034 3.792,38.823 15.652,76.73 12.376,39.562 25.506,54.776 34.961,54.776 15.269,0 24.585,-39.272 32.821,-76.666 6.068,-27.549 12.627,-55.31 25.576,-79.97 22.529,-42.9 56.572,-52.883 85.982,-52.883 64.488,0 96.764,74.819 96.764,94.204 0,32.395 -26.385,40.658 -37.821,40.658 -25.013,0 -33.492,-16.783 -40.629,-31.493 -6.419,-13.234 -13.124,-24.238 -21.792,-24.238 -2.848,0 -5.488,1.445 -7.929,3.93 -21.545,21.928 -28.769,136.644 -71.847,180.488 -23.882,24.306 -49.867,24.306 -66.117,24.306 z"
       fill="url(#paint3_radial)"
       id="path8"
       style="fill:url(#paint3_radial)" />
    <path
       d="m 181.196,399.355 c -73.419,0 -98.4071,-92.978 -104.0062,-111.066 -14.061,-45.42 -18.3355,-86.333 -18.788,-90.627 -2.611,-24.775 17.2321,-42.015 39.0102,-42.015 16.49,0 35.628,9.884 38.163,33.866 0.44,4.034 3.792,38.823 15.652,76.73 12.376,39.562 25.506,54.776 34.961,54.776 15.269,0 24.585,-39.272 32.821,-76.666 6.068,-27.549 12.627,-55.31 25.576,-79.97 22.529,-42.9 56.572,-52.883 85.982,-52.883 64.488,0 96.764,74.819 96.764,94.204 0,32.395 -26.385,40.658 -37.821,40.658 -25.013,0 -33.492,-16.783 -40.629,-31.493 -6.419,-13.234 -13.124,-24.238 -21.792,-24.238 -2.848,0 -5.488,1.445 -7.929,3.93 -21.545,21.928 -28.769,136.644 -71.847,180.488 -23.882,24.306 -49.867,24.306 -66.117,24.306 z"
       fill="url(#paint4_radial)"
       id="path10"
       style="fill:url(#paint4_radial)" />
    <path
       d="m 181.196,399.355 c -73.419,0 -98.4071,-92.978 -104.0062,-111.066 -14.061,-45.42 -18.3355,-86.333 -18.788,-90.627 -2.611,-24.775 17.2321,-42.015 39.0102,-42.015 16.49,0 35.628,9.884 38.163,33.866 0.44,4.034 3.792,38.823 15.652,76.73 12.376,39.562 25.506,54.776 34.961,54.776 15.269,0 24.585,-39.272 32.821,-76.666 6.068,-27.549 12.627,-55.31 25.576,-79.97 22.529,-42.9 56.572,-52.883 85.982,-52.883 64.488,0 96.764,74.819 96.764,94.204 0,32.395 -26.385,40.658 -37.821,40.658 -25.013,0 -33.492,-16.783 -40.629,-31.493 -6.419,-13.234 -13.124,-24.238 -21.792,-24.238 -2.848,0 -5.488,1.445 -7.929,3.93 -21.545,21.928 -28.769,136.644 -71.847,180.488 -23.882,24.306 -49.867,24.306 -66.117,24.306 z"
       fill="url(#paint5_radial)"
       id="path12"
       style="fill:url(#paint5_radial)" />
    <path
       d="m 181.196,399.355 c -73.419,0 -98.4071,-92.978 -104.0062,-111.066 -14.061,-45.42 -18.3355,-86.333 -18.788,-90.627 -2.611,-24.775 17.2321,-42.015 39.0102,-42.015 16.49,0 35.628,9.884 38.163,33.866 0.44,4.034 3.792,38.823 15.652,76.73 12.376,39.562 25.506,54.776 34.961,54.776 15.269,0 24.585,-39.272 32.821,-76.666 6.068,-27.549 12.627,-55.31 25.576,-79.97 22.529,-42.9 56.572,-52.883 85.982,-52.883 64.488,0 96.764,74.819 96.764,94.204 0,32.395 -26.385,40.658 -37.821,40.658 -25.013,0 -33.492,-16.783 -40.629,-31.493 -6.419,-13.234 -13.124,-24.238 -21.792,-24.238 -2.848,0 -5.488,1.445 -7.929,3.93 -21.545,21.928 -28.769,136.644 -71.847,180.488 -23.882,24.306 -49.867,24.306 -66.117,24.306 z"
       fill="url(#paint6_radial)"
       id="path14"
       style="fill:url(#paint6_radial)" />
    <path
       d="m 181.196,399.355 c -73.419,0 -98.4071,-92.978 -104.0062,-111.066 -14.061,-45.42 -18.3355,-86.333 -18.788,-90.627 -2.611,-24.775 17.2321,-42.015 39.0102,-42.015 16.49,0 35.628,9.884 38.163,33.866 0.44,4.034 3.792,38.823 15.652,76.73 12.376,39.562 25.506,54.776 34.961,54.776 15.269,0 24.585,-39.272 32.821,-76.666 6.068,-27.549 12.627,-55.31 25.576,-79.97 22.529,-42.9 56.572,-52.883 85.982,-52.883 64.488,0 96.764,74.819 96.764,94.204 0,32.395 -26.385,40.658 -37.821,40.658 -25.013,0 -33.492,-16.783 -40.629,-31.493 -6.419,-13.234 -13.124,-24.238 -21.792,-24.238 -2.848,0 -5.488,1.445 -7.929,3.93 -21.545,21.928 -28.769,136.644 -71.847,180.488 -23.882,24.306 -49.867,24.306 -66.117,24.306 z"
       fill="url(#paint7_linear)"
       id="path16"
       style="fill:url(#paint7_linear)" />
    <path
       d="m 181.196,399.355 c -73.419,0 -98.4071,-92.978 -104.0062,-111.066 -14.061,-45.42 -18.3355,-86.333 -18.788,-90.627 -2.611,-24.775 17.2321,-42.015 39.0102,-42.015 16.49,0 35.628,9.884 38.163,33.866 0.44,4.034 3.792,38.823 15.652,76.73 12.376,39.562 25.506,54.776 34.961,54.776 15.269,0 24.585,-39.272 32.821,-76.666 6.068,-27.549 12.627,-55.31 25.576,-79.97 22.529,-42.9 56.572,-52.883 85.982,-52.883 64.488,0 96.764,74.819 96.764,94.204 0,32.395 -26.385,40.658 -37.821,40.658 -25.013,0 -33.492,-16.783 -40.629,-31.493 -6.419,-13.234 -13.124,-24.238 -21.792,-24.238 -2.848,0 -5.488,1.445 -7.929,3.93 -21.545,21.928 -28.769,136.644 -71.847,180.488 -23.882,24.306 -49.867,24.306 -66.117,24.306 z"
       fill="url(#paint8_radial)"
       id="path18"
       style="fill:url(#paint8_radial)" />
    <path
       d="m 330.571,111.5 c -29.41,0 -63.453,9.983 -85.982,52.883 -12.95,24.66 -19.508,52.421 -25.576,79.97 -1.998,9.066 -4.059,18.241 -6.251,26.942 v 124.646 c 11.129,-3.153 23.084,-9.219 34.555,-20.892 43.077,-43.844 50.302,-158.56 71.847,-180.488 2.441,-2.485 5.081,-3.93 7.929,-3.93 8.668,0 15.373,11.004 21.792,24.238 7.137,14.71 15.616,31.493 40.629,31.493 11.435,0 37.821,-8.263 37.821,-40.658 0,-19.385 -32.276,-94.204 -96.764,-94.204 z"
       fill="url(#paint9_radial)"
       id="path20"
       style="fill:url(#paint9_radial)" />
    <path
       d="m 181.196,399.355 c -73.419,0 -98.4071,-92.978 -104.0062,-111.066 -14.061,-45.42 -18.3355,-86.333 -18.788,-90.627 -2.611,-24.775 17.2321,-42.015 39.0102,-42.015 16.49,0 35.628,9.884 38.163,33.866 0.44,4.034 3.792,38.823 15.652,76.73 12.376,39.562 25.506,54.776 34.961,54.776 15.269,0 24.585,-39.272 32.821,-76.666 6.068,-27.549 12.627,-55.31 25.576,-79.97 22.529,-42.9 56.572,-52.883 85.982,-52.883 64.488,0 96.764,74.819 96.764,94.204 0,32.395 -26.385,40.658 -37.821,40.658 -25.013,0 -33.492,-16.783 -40.629,-31.493 -6.419,-13.234 -13.124,-24.238 -21.792,-24.238 -2.848,0 -5.488,1.445 -7.929,3.93 -21.545,21.928 -28.769,136.644 -71.847,180.488 -23.882,24.306 -49.867,24.306 -66.117,24.306 z"
       fill="url(#paint10_radial)"
       id="path22"
       style="fill:url(#paint10_radial)" />
    <path
       d="m 181.196,399.355 c -73.419,0 -98.4071,-92.978 -104.0062,-111.066 -14.061,-45.42 -18.3355,-86.333 -18.788,-90.627 -2.611,-24.775 17.2321,-42.015 39.0102,-42.015 16.49,0 35.628,9.884 38.163,33.866 0.44,4.034 3.792,38.823 15.652,76.73 12.376,39.562 25.506,54.776 34.961,54.776 15.269,0 24.585,-39.272 32.821,-76.666 6.068,-27.549 12.627,-55.31 25.576,-79.97 22.529,-42.9 56.572,-52.883 85.982,-52.883 64.488,0 96.764,74.819 96.764,94.204 0,32.395 -26.385,40.658 -37.821,40.658 -25.013,0 -33.492,-16.783 -40.629,-31.493 -6.419,-13.234 -13.124,-24.238 -21.792,-24.238 -2.848,0 -5.488,1.445 -7.929,3.93 -21.545,21.928 -28.769,136.644 -71.847,180.488 -23.882,24.306 -49.867,24.306 -66.117,24.306 z"
       fill="url(#paint11_radial)"
       id="path24"
       style="fill:url(#paint11_radial)" />
    <path
       d="m 181.196,399.355 c -73.419,0 -98.4071,-92.978 -104.0062,-111.066 -14.061,-45.42 -18.3355,-86.333 -18.788,-90.627 -2.611,-24.775 17.2321,-42.015 39.0102,-42.015 16.49,0 35.628,9.884 38.163,33.866 0.44,4.034 3.792,38.823 15.652,76.73 12.376,39.562 25.506,54.776 34.961,54.776 15.269,0 24.585,-39.272 32.821,-76.666 6.068,-27.549 12.627,-55.31 25.576,-79.97 22.529,-42.9 56.572,-52.883 85.982,-52.883 64.488,0 96.764,74.819 96.764,94.204 0,32.395 -26.385,40.658 -37.821,40.658 -25.013,0 -33.492,-16.783 -40.629,-31.493 -6.419,-13.234 -13.124,-24.238 -21.792,-24.238 -2.848,0 -5.488,1.445 -7.929,3.93 -21.545,21.928 -28.769,136.644 -71.847,180.488 -23.882,24.306 -49.867,24.306 -66.117,24.306 z"
       fill="url(#paint12_radial)"
       id="path26"
       style="fill:url(#paint12_radial)" />
    <path
       d="m 181.196,399.355 c -73.419,0 -98.4071,-92.978 -104.0062,-111.066 -14.061,-45.42 -18.3355,-86.333 -18.788,-90.627 -2.611,-24.775 17.2321,-42.015 39.0102,-42.015 16.49,0 35.628,9.884 38.163,33.866 0.44,4.034 3.792,38.823 15.652,76.73 12.376,39.562 25.506,54.776 34.961,54.776 15.269,0 24.585,-39.272 32.821,-76.666 6.068,-27.549 12.627,-55.31 25.576,-79.97 22.529,-42.9 56.572,-52.883 85.982,-52.883 64.488,0 96.764,74.819 96.764,94.204 0,32.395 -26.385,40.658 -37.821,40.658 -25.013,0 -33.492,-16.783 -40.629,-31.493 -6.419,-13.234 -13.124,-24.238 -21.792,-24.238 -2.848,0 -5.488,1.445 -7.929,3.93 -21.545,21.928 -28.769,136.644 -71.847,180.488 -23.882,24.306 -49.867,24.306 -66.117,24.306 z"
       fill="url(#paint13_radial)"
       id="path28"
       style="fill:url(#paint13_radial)" />
    <path
       d="m 181.196,399.355 c -73.419,0 -98.4071,-92.978 -104.0062,-111.066 -14.061,-45.42 -18.3355,-86.333 -18.788,-90.627 -2.611,-24.775 17.2321,-42.015 39.0102,-42.015 16.49,0 35.628,9.884 38.163,33.866 0.44,4.034 3.792,38.823 15.652,76.73 12.376,39.562 25.506,54.776 34.961,54.776 15.269,0 24.585,-39.272 32.821,-76.666 6.068,-27.549 12.627,-55.31 25.576,-79.97 22.529,-42.9 56.572,-52.883 85.982,-52.883 64.488,0 96.764,74.819 96.764,94.204 0,32.395 -26.385,40.658 -37.821,40.658 -25.013,0 -33.492,-16.783 -40.629,-31.493 -6.419,-13.234 -13.124,-24.238 -21.792,-24.238 -2.848,0 -5.488,1.445 -7.929,3.93 -21.545,21.928 -28.769,136.644 -71.847,180.488 -23.882,24.306 -49.867,24.306 -66.117,24.306 z"
       fill="url(#paint14_radial)"
       id="path30"
       style="fill:url(#paint14_radial)" />
    <path
       d="m 415.439,155.647 c -2.907,0 -5.831,0.274 -8.699,0.84 13.632,19.684 20.453,40.305 20.453,49.215 0,32.395 -26.386,40.658 -37.822,40.658 -8.924,0 -15.742,-2.138 -21.147,-5.554 -0.05,0.202 -0.1,0.404 -0.15,0.606 -1.608,6.43 -2.876,13.466 -5.072,20.314 -4.222,13.166 -9.917,28.206 -15.999,39.844 -6.555,12.546 -13.045,19.887 -20.781,19.502 -8.797,-0.438 -15.93,-11.793 -24.795,-43.886 -2.859,-10.348 -5.506,-21.693 -7.96,-32.833 -6.085,-27.631 -13.555,-55.416 -26.327,-79.97 -20.86,-40.101 -56.446,-52.883 -84.856,-52.883 -26.347,0 -46.031,12.491 -61.494,28.229 -4.274,4.35 -8.941,10.209 -13.63,17.096 13.487,3.253 26.24,13.419 28.277,32.686 0.401,3.674 3.216,32.85 12.672,66.661 2.713,-8.477 6.669,-21.031 15.86,-41.303 4.504,-9.284 8.569,-15.406 12.236,-19.139 3.364,-3.423 6.393,-4.837 9.12,-4.837 2.941,0 12.984,2.696 22.761,37.052 12.125,42.602 21.149,110.403 55.528,146.402 15.163,15.88 36.383,26.153 65.792,26.153 25.805,0 47.319,-11.381 62.659,-27.212 25.221,-26.032 39.041,-69.072 43.97,-84.999 14.028,-45.311 17.957,-86.291 18.414,-90.627 2.611,-24.775 -18.232,-42.015 -39.01,-42.015 z"
       fill="#316aff"
       id="path32" />
    <path
       d="m 415.439,155.647 c -2.907,0 -5.831,0.274 -8.699,0.84 13.632,19.684 20.453,40.305 20.453,49.215 0,32.395 -26.386,40.658 -37.822,40.658 -8.924,0 -15.742,-2.138 -21.147,-5.554 -0.05,0.202 -0.1,0.404 -0.15,0.606 -1.608,6.43 -2.876,13.466 -5.072,20.314 -4.222,13.166 -9.917,28.206 -15.999,39.844 -6.555,12.546 -13.045,19.887 -20.781,19.502 -8.797,-0.438 -15.93,-11.793 -24.795,-43.886 -2.859,-10.348 -5.506,-21.693 -7.96,-32.833 -6.085,-27.631 -13.555,-55.416 -26.327,-79.97 -20.86,-40.101 -56.446,-52.883 -84.856,-52.883 -26.347,0 -46.031,12.491 -61.494,28.229 -4.274,4.35 -8.941,10.209 -13.63,17.096 13.487,3.253 26.24,13.419 28.277,32.686 0.401,3.674 3.216,32.85 12.672,66.661 2.713,-8.477 6.669,-21.031 15.86,-41.303 4.504,-9.284 8.569,-15.406 12.236,-19.139 3.364,-3.423 6.393,-4.837 9.12,-4.837 2.941,0 12.984,2.696 22.761,37.052 12.125,42.602 21.149,110.403 55.528,146.402 15.163,15.88 36.383,26.153 65.792,26.153 25.805,0 47.319,-11.381 62.659,-27.212 25.221,-26.032 39.041,-69.072 43.97,-84.999 14.028,-45.311 17.957,-86.291 18.414,-90.627 2.611,-24.775 -18.232,-42.015 -39.01,-42.015 z"
       fill="url(#paint15_radial)"
       id="path34"
       style="fill:url(#paint15_radial)" />
    <path
       d="m 415.439,155.647 c -2.907,0 -5.831,0.274 -8.699,0.84 13.632,19.684 20.453,40.305 20.453,49.215 0,32.395 -26.386,40.658 -37.822,40.658 -8.924,0 -15.742,-2.138 -21.147,-5.554 -0.05,0.202 -0.1,0.404 -0.15,0.606 -1.608,6.43 -2.876,13.466 -5.072,20.314 -4.222,13.166 -9.917,28.206 -15.999,39.844 -6.555,12.546 -13.045,19.887 -20.781,19.502 -8.797,-0.438 -15.93,-11.793 -24.795,-43.886 -2.859,-10.348 -5.506,-21.693 -7.96,-32.833 -6.085,-27.631 -13.555,-55.416 -26.327,-79.97 -20.86,-40.101 -56.446,-52.883 -84.856,-52.883 -26.347,0 -46.031,12.491 -61.494,28.229 -4.274,4.35 -8.941,10.209 -13.63,17.096 13.487,3.253 26.24,13.419 28.277,32.686 0.401,3.674 3.216,32.85 12.672,66.661 2.713,-8.477 6.669,-21.031 15.86,-41.303 4.504,-9.284 8.569,-15.406 12.236,-19.139 3.364,-3.423 6.393,-4.837 9.12,-4.837 2.941,0 12.984,2.696 22.761,37.052 12.125,42.602 21.149,110.403 55.528,146.402 15.163,15.88 36.383,26.153 65.792,26.153 25.805,0 47.319,-11.381 62.659,-27.212 25.221,-26.032 39.041,-69.072 43.97,-84.999 14.028,-45.311 17.957,-86.291 18.414,-90.627 2.611,-24.775 -18.232,-42.015 -39.01,-42.015 z"
       fill="url(#paint16_radial)"
       id="path36"
       style="fill:url(#paint16_radial)" />
    <path
       d="m 415.439,155.647 c -2.907,0 -5.831,0.274 -8.699,0.84 13.632,19.684 20.453,40.305 20.453,49.215 0,32.395 -26.386,40.658 -37.822,40.658 -8.924,0 -15.742,-2.138 -21.147,-5.554 -0.05,0.202 -0.1,0.404 -0.15,0.606 -1.608,6.43 -2.876,13.466 -5.072,20.314 -4.222,13.166 -9.917,28.206 -15.999,39.844 -6.555,12.546 -13.045,19.887 -20.781,19.502 -8.797,-0.438 -15.93,-11.793 -24.795,-43.886 -2.859,-10.348 -5.506,-21.693 -7.96,-32.833 -6.085,-27.631 -13.555,-55.416 -26.327,-79.97 -20.86,-40.101 -56.446,-52.883 -84.856,-52.883 -26.347,0 -46.031,12.491 -61.494,28.229 -4.274,4.35 -8.941,10.209 -13.63,17.096 13.487,3.253 26.24,13.419 28.277,32.686 0.401,3.674 3.216,32.85 12.672,66.661 2.713,-8.477 6.669,-21.031 15.86,-41.303 4.504,-9.284 8.569,-15.406 12.236,-19.139 3.364,-3.423 6.393,-4.837 9.12,-4.837 2.941,0 12.984,2.696 22.761,37.052 12.125,42.602 21.149,110.403 55.528,146.402 15.163,15.88 36.383,26.153 65.792,26.153 25.805,0 47.319,-11.381 62.659,-27.212 25.221,-26.032 39.041,-69.072 43.97,-84.999 14.028,-45.311 17.957,-86.291 18.414,-90.627 2.611,-24.775 -18.232,-42.015 -39.01,-42.015 z"
       fill="url(#paint17_radial)"
       id="path38"
       style="fill:url(#paint17_radial)" />
    <path
       d="m 415.439,155.647 c -2.907,0 -5.831,0.274 -8.699,0.84 13.632,19.684 20.453,40.305 20.453,49.215 0,32.395 -26.386,40.658 -37.822,40.658 -8.924,0 -15.742,-2.138 -21.147,-5.554 -0.05,0.202 -0.1,0.404 -0.15,0.606 -1.608,6.43 -2.876,13.466 -5.072,20.314 -4.222,13.166 -9.917,28.206 -15.999,39.844 -6.555,12.546 -13.045,19.887 -20.781,19.502 -8.797,-0.438 -15.93,-11.793 -24.795,-43.886 -2.859,-10.348 -5.506,-21.693 -7.96,-32.833 -6.085,-27.631 -13.555,-55.416 -26.327,-79.97 -20.86,-40.101 -56.446,-52.883 -84.856,-52.883 -26.347,0 -46.031,12.491 -61.494,28.229 -4.274,4.35 -8.941,10.209 -13.63,17.096 13.487,3.253 26.24,13.419 28.277,32.686 0.401,3.674 3.216,32.85 12.672,66.661 2.713,-8.477 6.669,-21.031 15.86,-41.303 4.504,-9.284 8.569,-15.406 12.236,-19.139 3.364,-3.423 6.393,-4.837 9.12,-4.837 2.941,0 12.984,2.696 22.761,37.052 12.125,42.602 21.149,110.403 55.528,146.402 15.163,15.88 36.383,26.153 65.792,26.153 25.805,0 47.319,-11.381 62.659,-27.212 25.221,-26.032 39.041,-69.072 43.97,-84.999 14.028,-45.311 17.957,-86.291 18.414,-90.627 2.611,-24.775 -18.232,-42.015 -39.01,-42.015 z"
       fill="url(#paint18_radial)"
       id="path40"
       style="fill:url(#paint18_radial)" />
    <path
       d="m 415.439,155.647 c -2.907,0 -5.831,0.274 -8.699,0.84 13.632,19.684 20.453,40.305 20.453,49.215 0,32.395 -26.386,40.658 -37.822,40.658 -8.924,0 -15.742,-2.138 -21.147,-5.554 -0.05,0.202 -0.1,0.404 -0.15,0.606 -1.608,6.43 -2.876,13.466 -5.072,20.314 -4.222,13.166 -9.917,28.206 -15.999,39.844 -6.555,12.546 -13.045,19.887 -20.781,19.502 -8.797,-0.438 -15.93,-11.793 -24.795,-43.886 -2.859,-10.348 -5.506,-21.693 -7.96,-32.833 -6.085,-27.631 -13.555,-55.416 -26.327,-79.97 -20.86,-40.101 -56.446,-52.883 -84.856,-52.883 -26.347,0 -46.031,12.491 -61.494,28.229 -4.274,4.35 -8.941,10.209 -13.63,17.096 13.487,3.253 26.24,13.419 28.277,32.686 0.401,3.674 3.216,32.85 12.672,66.661 2.713,-8.477 6.669,-21.031 15.86,-41.303 4.504,-9.284 8.569,-15.406 12.236,-19.139 3.364,-3.423 6.393,-4.837 9.12,-4.837 2.941,0 12.984,2.696 22.761,37.052 12.125,42.602 21.149,110.403 55.528,146.402 15.163,15.88 36.383,26.153 65.792,26.153 25.805,0 47.319,-11.381 62.659,-27.212 25.221,-26.032 39.041,-69.072 43.97,-84.999 14.028,-45.311 17.957,-86.291 18.414,-90.627 2.611,-24.775 -18.232,-42.015 -39.01,-42.015 z"
       fill="url(#paint19_radial)"
       id="path42"
       style="fill:url(#paint19_radial)" />
    <path
       d="m 415.439,155.647 c -2.907,0 -5.831,0.274 -8.699,0.84 13.632,19.684 20.453,40.305 20.453,49.215 0,32.395 -26.386,40.658 -37.822,40.658 -8.924,0 -15.742,-2.138 -21.147,-5.554 -0.05,0.202 -0.1,0.404 -0.15,0.606 -1.608,6.43 -2.876,13.466 -5.072,20.314 -4.222,13.166 -9.917,28.206 -15.999,39.844 -6.555,12.546 -13.045,19.887 -20.781,19.502 -8.797,-0.438 -15.93,-11.793 -24.795,-43.886 -2.859,-10.348 -5.506,-21.693 -7.96,-32.833 -6.085,-27.631 -13.555,-55.416 -26.327,-79.97 -20.86,-40.101 -56.446,-52.883 -84.856,-52.883 -26.347,0 -46.031,12.491 -61.494,28.229 -4.274,4.35 -8.941,10.209 -13.63,17.096 13.487,3.253 26.24,13.419 28.277,32.686 0.401,3.674 3.216,32.85 12.672,66.661 2.713,-8.477 6.669,-21.031 15.86,-41.303 4.504,-9.284 8.569,-15.406 12.236,-19.139 3.364,-3.423 6.393,-4.837 9.12,-4.837 2.941,0 12.984,2.696 22.761,37.052 12.125,42.602 21.149,110.403 55.528,146.402 15.163,15.88 36.383,26.153 65.792,26.153 25.805,0 47.319,-11.381 62.659,-27.212 25.221,-26.032 39.041,-69.072 43.97,-84.999 14.028,-45.311 17.957,-86.291 18.414,-90.627 2.611,-24.775 -18.232,-42.015 -39.01,-42.015 z"
       fill="url(#paint20_radial)"
       id="path44"
       style="fill:url(#paint20_radial)" />
    <path
       d="m 415.439,155.647 c -2.907,0 -5.831,0.274 -8.699,0.84 13.632,19.684 20.453,40.305 20.453,49.215 0,32.395 -26.386,40.658 -37.822,40.658 -8.924,0 -15.742,-2.138 -21.147,-5.554 -0.05,0.202 -0.1,0.404 -0.15,0.606 -1.608,6.43 -2.876,13.466 -5.072,20.314 -4.222,13.166 -9.917,28.206 -15.999,39.844 -6.555,12.546 -13.045,19.887 -20.781,19.502 -8.797,-0.438 -15.93,-11.793 -24.795,-43.886 -2.859,-10.348 -5.506,-21.693 -7.96,-32.833 -6.085,-27.631 -13.555,-55.416 -26.327,-79.97 -20.86,-40.101 -56.446,-52.883 -84.856,-52.883 -26.347,0 -46.031,12.491 -61.494,28.229 -4.274,4.35 -8.941,10.209 -13.63,17.096 13.487,3.253 26.24,13.419 28.277,32.686 0.401,3.674 3.216,32.85 12.672,66.661 2.713,-8.477 6.669,-21.031 15.86,-41.303 4.504,-9.284 8.569,-15.406 12.236,-19.139 3.364,-3.423 6.393,-4.837 9.12,-4.837 2.941,0 12.984,2.696 22.761,37.052 12.125,42.602 21.149,110.403 55.528,146.402 15.163,15.88 36.383,26.153 65.792,26.153 25.805,0 47.319,-11.381 62.659,-27.212 25.221,-26.032 39.041,-69.072 43.97,-84.999 14.028,-45.311 17.957,-86.291 18.414,-90.627 2.611,-24.775 -18.232,-42.015 -39.01,-42.015 z"
       fill="url(#paint21_radial)"
       id="path46"
       style="fill:url(#paint21_radial)" />
    <path
       d="m 415.439,155.647 c -2.907,0 -5.831,0.274 -8.699,0.84 13.632,19.684 20.453,40.305 20.453,49.215 0,32.395 -26.386,40.658 -37.822,40.658 -8.924,0 -15.742,-2.138 -21.147,-5.554 -0.05,0.202 -0.1,0.404 -0.15,0.606 -1.608,6.43 -2.876,13.466 -5.072,20.314 -4.222,13.166 -9.917,28.206 -15.999,39.844 -6.555,12.546 -13.045,19.887 -20.781,19.502 -8.797,-0.438 -15.93,-11.793 -24.795,-43.886 -2.859,-10.348 -5.506,-21.693 -7.96,-32.833 -6.085,-27.631 -13.555,-55.416 -26.327,-79.97 -20.86,-40.101 -56.446,-52.883 -84.856,-52.883 -26.347,0 -46.031,12.491 -61.494,28.229 -4.274,4.35 -8.941,10.209 -13.63,17.096 13.487,3.253 26.24,13.419 28.277,32.686 0.401,3.674 3.216,32.85 12.672,66.661 2.713,-8.477 6.669,-21.031 15.86,-41.303 4.504,-9.284 8.569,-15.406 12.236,-19.139 3.364,-3.423 6.393,-4.837 9.12,-4.837 2.941,0 12.984,2.696 22.761,37.052 12.125,42.602 21.149,110.403 55.528,146.402 15.163,15.88 36.383,26.153 65.792,26.153 25.805,0 47.319,-11.381 62.659,-27.212 25.221,-26.032 39.041,-69.072 43.97,-84.999 14.028,-45.311 17.957,-86.291 18.414,-90.627 2.611,-24.775 -18.232,-42.015 -39.01,-42.015 z"
       fill="url(#paint22_radial)"
       id="path48"
       style="fill:url(#paint22_radial)" />
    <path
       d="m 415.439,155.647 c -2.907,0 -5.831,0.274 -8.699,0.84 13.632,19.684 20.453,40.305 20.453,49.215 0,32.395 -26.386,40.658 -37.822,40.658 -8.924,0 -15.742,-2.138 -21.147,-5.554 -0.05,0.202 -0.1,0.404 -0.15,0.606 -1.608,6.43 -2.876,13.466 -5.072,20.314 -4.222,13.166 -9.917,28.206 -15.999,39.844 -6.555,12.546 -13.045,19.887 -20.781,19.502 -8.797,-0.438 -15.93,-11.793 -24.795,-43.886 -2.859,-10.348 -5.506,-21.693 -7.96,-32.833 -6.085,-27.631 -13.555,-55.416 -26.327,-79.97 -20.86,-40.101 -56.446,-52.883 -84.856,-52.883 -26.347,0 -46.031,12.491 -61.494,28.229 -4.274,4.35 -8.941,10.209 -13.63,17.096 13.487,3.253 26.24,13.419 28.277,32.686 0.401,3.674 3.216,32.85 12.672,66.661 2.713,-8.477 6.669,-21.031 15.86,-41.303 4.504,-9.284 8.569,-15.406 12.236,-19.139 3.364,-3.423 6.393,-4.837 9.12,-4.837 2.941,0 12.984,2.696 22.761,37.052 12.125,42.602 21.149,110.403 55.528,146.402 15.163,15.88 36.383,26.153 65.792,26.153 25.805,0 47.319,-11.381 62.659,-27.212 25.221,-26.032 39.041,-69.072 43.97,-84.999 14.028,-45.311 17.957,-86.291 18.414,-90.627 2.611,-24.775 -18.232,-42.015 -39.01,-42.015 z"
       fill="url(#paint23_radial)"
       id="path50"
       style="fill:url(#paint23_radial)" />
    <path
       d="m 415.439,155.647 c -2.907,0 -5.831,0.274 -8.699,0.84 13.632,19.684 20.453,40.305 20.453,49.215 0,32.395 -26.386,40.658 -37.822,40.658 -8.924,0 -15.742,-2.138 -21.147,-5.554 -0.05,0.202 -0.1,0.404 -0.15,0.606 -1.608,6.43 -2.876,13.466 -5.072,20.314 -4.222,13.166 -9.917,28.206 -15.999,39.844 -6.555,12.546 -13.045,19.887 -20.781,19.502 -8.797,-0.438 -15.93,-11.793 -24.795,-43.886 -2.859,-10.348 -5.506,-21.693 -7.96,-32.833 -6.085,-27.631 -13.555,-55.416 -26.327,-79.97 -20.86,-40.101 -56.446,-52.883 -84.856,-52.883 -26.347,0 -46.031,12.491 -61.494,28.229 -4.274,4.35 -8.941,10.209 -13.63,17.096 13.487,3.253 26.24,13.419 28.277,32.686 0.401,3.674 3.216,32.85 12.672,66.661 2.713,-8.477 6.669,-21.031 15.86,-41.303 4.504,-9.284 8.569,-15.406 12.236,-19.139 3.364,-3.423 6.393,-4.837 9.12,-4.837 2.941,0 12.984,2.696 22.761,37.052 12.125,42.602 21.149,110.403 55.528,146.402 15.163,15.88 36.383,26.153 65.792,26.153 25.805,0 47.319,-11.381 62.659,-27.212 25.221,-26.032 39.041,-69.072 43.97,-84.999 14.028,-45.311 17.957,-86.291 18.414,-90.627 2.611,-24.775 -18.232,-42.015 -39.01,-42.015 z"
       fill="url(#paint24_radial)"
       id="path52"
       style="fill:url(#paint24_radial)" />
    <path
       d="m 181.196,399.355 c -73.419,0 -98.4071,-92.978 -104.0062,-111.066 -14.061,-45.42 -18.3355,-86.333 -18.788,-90.627 -2.611,-24.775 17.2321,-42.015 39.0102,-42.015 16.49,0 35.628,9.884 38.163,33.866 0.44,4.034 3.792,38.823 15.652,76.73 12.376,39.562 25.506,54.776 34.961,54.776 15.269,0 24.585,-39.272 32.821,-76.666 6.068,-27.549 12.627,-55.31 25.576,-79.97 22.529,-42.9 56.572,-52.883 85.982,-52.883 64.488,0 96.764,74.819 96.764,94.204 0,32.395 -26.385,40.658 -37.821,40.658 -25.013,0 -33.492,-16.783 -40.629,-31.493 -6.419,-13.234 -13.124,-24.238 -21.792,-24.238 -2.848,0 -5.488,1.445 -7.929,3.93 -21.545,21.928 -28.769,136.644 -71.847,180.488 -23.882,24.306 -49.867,24.306 -66.117,24.306 z"
       fill="url(#paint25_linear)"
       id="path54"
       style="fill:url(#paint25_linear)" />
    <path
       d="m 181.196,399.355 c -73.419,0 -98.4071,-92.978 -104.0062,-111.066 -14.061,-45.42 -18.3355,-86.333 -18.788,-90.627 -2.611,-24.775 17.2321,-42.015 39.0102,-42.015 16.49,0 35.628,9.884 38.163,33.866 0.44,4.034 3.792,38.823 15.652,76.73 12.376,39.562 25.506,54.776 34.961,54.776 15.269,0 24.585,-39.272 32.821,-76.666 6.068,-27.549 12.627,-55.31 25.576,-79.97 22.529,-42.9 56.572,-52.883 85.982,-52.883 64.488,0 96.764,74.819 96.764,94.204 0,32.395 -26.385,40.658 -37.821,40.658 -25.013,0 -33.492,-16.783 -40.629,-31.493 -6.419,-13.234 -13.124,-24.238 -21.792,-24.238 -2.848,0 -5.488,1.445 -7.929,3.93 -21.545,21.928 -28.769,136.644 -71.847,180.488 -23.882,24.306 -49.867,24.306 -66.117,24.306 z"
       fill="url(#paint26_radial)"
       id="path56"
       style="fill:url(#paint26_radial)" />
    <path
       d="m 181.196,399.355 c -73.419,0 -98.4071,-92.978 -104.0062,-111.066 -14.061,-45.42 -18.3355,-86.333 -18.788,-90.627 -2.611,-24.775 17.2321,-42.015 39.0102,-42.015 16.49,0 35.628,9.884 38.163,33.866 0.44,4.034 3.792,38.823 15.652,76.73 12.376,39.562 25.506,54.776 34.961,54.776 15.269,0 24.585,-39.272 32.821,-76.666 6.068,-27.549 12.627,-55.31 25.576,-79.97 22.529,-42.9 56.572,-52.883 85.982,-52.883 64.488,0 96.764,74.819 96.764,94.204 0,32.395 -26.385,40.658 -37.821,40.658 -25.013,0 -33.492,-16.783 -40.629,-31.493 -6.419,-13.234 -13.124,-24.238 -21.792,-24.238 -2.848,0 -5.488,1.445 -7.929,3.93 -21.545,21.928 -28.769,136.644 -71.847,180.488 -23.882,24.306 -49.867,24.306 -66.117,24.306 z"
       fill="url(#paint27_linear)"
       id="path58"
       style="fill:url(#paint27_linear)" />
    <path
       d="m 181.196,399.355 c -73.419,0 -98.4071,-92.978 -104.0062,-111.066 -14.061,-45.42 -18.3355,-86.333 -18.788,-90.627 -2.611,-24.775 17.2321,-42.015 39.0102,-42.015 16.49,0 35.628,9.884 38.163,33.866 0.44,4.034 3.792,38.823 15.652,76.73 12.376,39.562 25.506,54.776 34.961,54.776 15.269,0 24.585,-39.272 32.821,-76.666 6.068,-27.549 12.627,-55.31 25.576,-79.97 22.529,-42.9 56.572,-52.883 85.982,-52.883 64.488,0 96.764,74.819 96.764,94.204 0,32.395 -26.385,40.658 -37.821,40.658 -25.013,0 -33.492,-16.783 -40.629,-31.493 -6.419,-13.234 -13.124,-24.238 -21.792,-24.238 -2.848,0 -5.488,1.445 -7.929,3.93 -21.545,21.928 -28.769,136.644 -71.847,180.488 -23.882,24.306 -49.867,24.306 -66.117,24.306 z"
       fill="url(#paint28_linear)"
       id="path60"
       style="fill:url(#paint28_linear)" />
    <path
       d="m 181.196,399.355 c -73.419,0 -98.4071,-92.978 -104.0062,-111.066 -14.061,-45.42 -18.3355,-86.333 -18.788,-90.627 -2.611,-24.775 17.2321,-42.015 39.0102,-42.015 16.49,0 35.628,9.884 38.163,33.866 0.44,4.034 3.792,38.823 15.652,76.73 12.376,39.562 25.506,54.776 34.961,54.776 15.269,0 24.585,-39.272 32.821,-76.666 6.068,-27.549 12.627,-55.31 25.576,-79.97 22.529,-42.9 56.572,-52.883 85.982,-52.883 64.488,0 96.764,74.819 96.764,94.204 0,32.395 -26.385,40.658 -37.821,40.658 -25.013,0 -33.492,-16.783 -40.629,-31.493 -6.419,-13.234 -13.124,-24.238 -21.792,-24.238 -2.848,0 -5.488,1.445 -7.929,3.93 -21.545,21.928 -28.769,136.644 -71.847,180.488 -23.882,24.306 -49.867,24.306 -66.117,24.306 z"
       fill="url(#paint29_radial)"
       id="path62"
       style="fill:url(#paint29_radial)" />
  </g>
  <defs
     id="defs233">
    <linearGradient
       id="paint0_linear"
       x1="387.159"
       y1="195.957"
       x2="127.733"
       y2="280.91901"
       gradientUnits="userSpaceOnUse">
      <stop
         stop-color="#5CEE64"
         id="stop66" />
      <stop
         offset="1"
         stop-color="#00BBFF"
         id="stop68" />
    </linearGradient>
    <radialGradient
       id="paint1_radial"
       cx="0"
       cy="0"
       r="1"
       gradientUnits="userSpaceOnUse"
       gradientTransform="matrix(-87.150962,-146.05217,122.52966,-73.114819,209.088,265.007)">
      <stop
         stop-color="#007383"
         id="stop71" />
      <stop
         offset="0.407867"
         stop-color="#00717E"
         stop-opacity="0.75"
         id="stop73" />
      <stop
         offset="0.874482"
         stop-color="#007281"
         stop-opacity="0"
         id="stop75" />
    </radialGradient>
    <radialGradient
       id="paint2_radial"
       cx="0"
       cy="0"
       r="1"
       gradientUnits="userSpaceOnUse"
       gradientTransform="matrix(-82.875076,-111.20164,73.036902,-54.432098,320.722,233.349)">
      <stop
         stop-color="#218970"
         id="stop78" />
      <stop
         offset="0.459527"
         stop-color="#267E6A"
         id="stop80" />
      <stop
         offset="1"
         stop-color="#026C51"
         stop-opacity="0"
         id="stop82" />
    </radialGradient>
    <radialGradient
       id="paint3_radial"
       cx="0"
       cy="0"
       r="1"
       gradientUnits="userSpaceOnUse"
       gradientTransform="matrix(-33.87667,-107.79722,56.096055,-17.62891,199.304,273.046)">
      <stop
         stop-color="#178697"
         id="stop85" />
      <stop
         offset="0.407867"
         stop-color="#17838F"
         stop-opacity="0.79"
         id="stop87" />
      <stop
         offset="0.874482"
         stop-color="#007281"
         stop-opacity="0"
         id="stop89" />
    </radialGradient>
    <radialGradient
       id="paint4_radial"
       cx="0"
       cy="0"
       r="1"
       gradientUnits="userSpaceOnUse"
       gradientTransform="matrix(-147.00185,-246.35344,75.942095,-45.315497,249.478,272.443)">
      <stop
         stop-color="#25342F"
         stop-opacity="0.3"
         id="stop92" />
      <stop
         offset="1"
         stop-color="#25342F"
         stop-opacity="0"
         id="stop94" />
    </radialGradient>
    <radialGradient
       id="paint5_radial"
       cx="0"
       cy="0"
       r="1"
       gradientUnits="userSpaceOnUse"
       gradientTransform="matrix(9.2236422,107.69072,-60.998173,5.2244549,300.599,236.496)">
      <stop
         stop-color="#056D4F"
         id="stop97" />
      <stop
         offset="0.232593"
         stop-color="#056C4E"
         stop-opacity="0.75"
         id="stop99" />
      <stop
         offset="0.598902"
         stop-color="#056C4E"
         stop-opacity="0.300824"
         id="stop101" />
      <stop
         offset="0.874482"
         stop-color="#056C4F"
         stop-opacity="0"
         id="stop103" />
    </radialGradient>
    <radialGradient
       id="paint6_radial"
       cx="0"
       cy="0"
       r="1"
       gradientUnits="userSpaceOnUse"
       gradientTransform="matrix(68.961845,106.65265,-55.907618,36.149992,305.374,61.6927)">
      <stop
         stop-color="#22B67B"
         id="stop106" />
      <stop
         offset="0.407867"
         stop-color="#24BE82"
         id="stop108" />
      <stop
         offset="1"
         stop-color="#24BE82"
         stop-opacity="0.07"
         id="stop110" />
    </radialGradient>
    <linearGradient
       id="paint7_linear"
       x1="-39.3862"
       y1="252.916"
       x2="144.414"
       y2="254.42599"
       gradientUnits="userSpaceOnUse">
      <stop
         stop-color="#09F8FF"
         id="stop113" />
      <stop
         offset="1"
         stop-color="#0BF7F9"
         stop-opacity="0"
         id="stop115" />
    </linearGradient>
    <radialGradient
       id="paint8_radial"
       cx="0"
       cy="0"
       r="1"
       gradientUnits="userSpaceOnUse"
       gradientTransform="matrix(107.29241,126.46698,-126.12307,107.00064,0.0998016,87.1388)">
      <stop
         stop-color="#09F8FF"
         id="stop118" />
      <stop
         offset="1"
         stop-color="#0BF7F9"
         stop-opacity="0"
         id="stop120" />
    </radialGradient>
    <radialGradient
       id="paint9_radial"
       cx="0"
       cy="0"
       r="1"
       gradientUnits="userSpaceOnUse"
       gradientTransform="matrix(224.84706,250.16365,-249.73302,224.46001,132.847,3.591)">
      <stop
         stop-color="#00B8FF"
         id="stop123" />
      <stop
         offset="0.745423"
         stop-color="#00B9FC"
         stop-opacity="0"
         id="stop125" />
    </radialGradient>
    <radialGradient
       id="paint10_radial"
       cx="0"
       cy="0"
       r="1"
       gradientUnits="userSpaceOnUse"
       gradientTransform="matrix(-48.631363,-154.74738,107.10176,-33.658111,150.639,256.03)">
      <stop
         stop-color="#00BCFF"
         stop-opacity="0.76"
         id="stop128" />
      <stop
         offset="0.57273"
         stop-color="#00BAFC"
         stop-opacity="0"
         id="stop130" />
    </radialGradient>
    <radialGradient
       id="paint11_radial"
       cx="0"
       cy="0"
       r="1"
       gradientUnits="userSpaceOnUse"
       gradientTransform="matrix(-72.948076,-88.45534,61.911332,-51.057545,396.933,194.415)">
      <stop
         stop-color="#5FEC50"
         id="stop133" />
      <stop
         offset="1"
         stop-color="#3CC08E"
         stop-opacity="0"
         id="stop135" />
    </radialGradient>
    <radialGradient
       id="paint12_radial"
       cx="0"
       cy="0"
       r="1"
       gradientUnits="userSpaceOnUse"
       gradientTransform="matrix(6.5617577,-34.103573,23.557509,4.5326237,380.535,268.305)">
      <stop
         stop-color="#28855B"
         id="stop138" />
      <stop
         offset="1"
         stop-color="#14795C"
         stop-opacity="0"
         id="stop140" />
    </radialGradient>
    <radialGradient
       id="paint13_radial"
       cx="0"
       cy="0"
       r="1"
       gradientUnits="userSpaceOnUse"
       gradientTransform="matrix(6.0033197,-27.993211,39.072694,8.3793844,378.863,265.748)">
      <stop
         stop-color="#28855B"
         id="stop143" />
      <stop
         offset="1"
         stop-color="#14795C"
         stop-opacity="0"
         id="stop145" />
    </radialGradient>
    <radialGradient
       id="paint14_radial"
       cx="0"
       cy="0"
       r="1"
       gradientUnits="userSpaceOnUse"
       gradientTransform="matrix(-64.431354,-69.699006,48.959062,-45.258876,412.925,214.168)">
      <stop
         stop-color="#5FF05B"
         id="stop148" />
      <stop
         offset="0.813285"
         stop-color="#5DE955"
         stop-opacity="0"
         id="stop150" />
    </radialGradient>
    <radialGradient
       id="paint15_radial"
       cx="0"
       cy="0"
       r="1"
       gradientUnits="userSpaceOnUse"
       gradientTransform="matrix(66.959424,51.368262,-71.426253,93.105364,383.26,241.448)">
      <stop
         stop-color="#123AA8"
         id="stop153" />
      <stop
         offset="0.966119"
         stop-color="#123AA8"
         stop-opacity="0"
         id="stop155" />
    </radialGradient>
    <radialGradient
       id="paint16_radial"
       cx="0"
       cy="0"
       r="1"
       gradientUnits="userSpaceOnUse"
       gradientTransform="matrix(98.436384,14.707148,-21.981445,147.12397,362.276,250.969)">
      <stop
         stop-color="#123AA8"
         id="stop158" />
      <stop
         offset="0.592487"
         stop-color="#123AA8"
         stop-opacity="0"
         id="stop160" />
    </radialGradient>
    <radialGradient
       id="paint17_radial"
       cx="0"
       cy="0"
       r="1"
       gradientUnits="userSpaceOnUse"
       gradientTransform="matrix(77.261031,35.524505,-63.357481,137.79402,370.352,263.332)">
      <stop
         stop-color="#123AA8"
         id="stop163" />
      <stop
         offset="0.756788"
         stop-color="#123AA8"
         stop-opacity="0"
         id="stop165" />
    </radialGradient>
    <radialGradient
       id="paint18_radial"
       cx="0"
       cy="0"
       r="1"
       gradientUnits="userSpaceOnUse"
       gradientTransform="matrix(-15.452103,152.25792,-83.326788,-8.4565329,360.368,268.376)">
      <stop
         stop-color="#123AA8"
         id="stop168" />
      <stop
         offset="0.592487"
         stop-color="#123AA8"
         stop-opacity="0"
         id="stop170" />
      <stop
         offset="1"
         stop-color="#123AA8"
         stop-opacity="0"
         id="stop172" />
    </radialGradient>
    <radialGradient
       id="paint19_radial"
       cx="0"
       cy="0"
       r="1"
       gradientUnits="userSpaceOnUse"
       gradientTransform="matrix(-11.763981,183.80392,-65.506268,-4.1925899,383.26,200.809)">
      <stop
         stop-color="#123AA8"
         id="stop175" />
      <stop
         offset="0.884611"
         stop-color="#123AA8"
         stop-opacity="0"
         id="stop177" />
    </radialGradient>
    <radialGradient
       id="paint20_radial"
       cx="0"
       cy="0"
       r="1"
       gradientUnits="userSpaceOnUse"
       gradientTransform="matrix(8.7956632,97.336906,-51.498771,4.6535879,174.818,239.104)">
      <stop
         stop-color="#123AA8"
         id="stop180" />
      <stop
         offset="0.884611"
         stop-color="#123AA8"
         stop-opacity="0"
         id="stop182" />
    </radialGradient>
    <radialGradient
       id="paint21_radial"
       cx="0"
       cy="0"
       r="1"
       gradientUnits="userSpaceOnUse"
       gradientTransform="matrix(4.8863486,101.88389,-83.999749,4.0286256,174.748,241.733)">
      <stop
         stop-color="#123AA8"
         id="stop185" />
      <stop
         offset="0.884611"
         stop-color="#123AA8"
         stop-opacity="0"
         id="stop187" />
    </radialGradient>
    <radialGradient
       id="paint22_radial"
       cx="0"
       cy="0"
       r="1"
       gradientUnits="userSpaceOnUse"
       gradientTransform="matrix(104.42962,-44.760532,87.574526,204.31781,197.923,337.577)">
      <stop
         stop-color="#123AA8"
         id="stop190" />
      <stop
         offset="0.708977"
         stop-color="#123AA8"
         stop-opacity="0"
         id="stop192" />
    </radialGradient>
    <radialGradient
       id="paint23_radial"
       cx="0"
       cy="0"
       r="1"
       gradientUnits="userSpaceOnUse"
       gradientTransform="matrix(-70.504338,-26.359089,45.180597,-120.84742,157.506,216.794)">
      <stop
         stop-color="#1A3DA0"
         id="stop195" />
      <stop
         offset="0.708977"
         stop-color="#123AA8"
         stop-opacity="0"
         id="stop197" />
    </radialGradient>
    <radialGradient
       id="paint24_radial"
       cx="0"
       cy="0"
       r="1"
       gradientUnits="userSpaceOnUse"
       gradientTransform="matrix(137.44824,41.421388,-41.862569,138.91221,91.2595,242.443)">
      <stop
         stop-color="#1E3882"
         id="stop200" />
      <stop
         offset="0.761404"
         stop-color="#123AA8"
         stop-opacity="0"
         id="stop202" />
    </radialGradient>
    <linearGradient
       id="paint25_linear"
       x1="46.233101"
       y1="162.942"
       x2="187.78799"
       y2="253.166"
       gradientUnits="userSpaceOnUse">
      <stop
         offset="0.229329"
         stop-color="#1DC4FF"
         id="stop205" />
      <stop
         offset="1"
         stop-color="#1CC1FF"
         stop-opacity="0"
         id="stop207" />
    </linearGradient>
    <radialGradient
       id="paint26_radial"
       cx="0"
       cy="0"
       r="1"
       gradientUnits="userSpaceOnUse"
       gradientTransform="matrix(107.29241,126.46698,-126.12307,107.00064,0.0912268,87.1321)">
      <stop
         stop-color="#09F8FF"
         id="stop210" />
      <stop
         offset="1"
         stop-color="#0BF7F9"
         stop-opacity="0"
         id="stop212" />
    </radialGradient>
    <linearGradient
       id="paint27_linear"
       x1="54.0513"
       y1="167.56"
       x2="93.775299"
       y2="203.522"
       gradientUnits="userSpaceOnUse">
      <stop
         stop-color="#26FBFF"
         id="stop215" />
      <stop
         offset="0.637346"
         stop-color="#0BF7F9"
         stop-opacity="0"
         id="stop217" />
    </linearGradient>
    <linearGradient
       id="paint28_linear"
       x1="43.510601"
       y1="195.127"
       x2="98.388298"
       y2="199.037"
       gradientUnits="userSpaceOnUse">
      <stop
         stop-color="#26FBFF"
         id="stop220" />
      <stop
         offset="0.637346"
         stop-color="#0BF7F9"
         stop-opacity="0"
         id="stop222" />
    </linearGradient>
    <radialGradient
       id="paint29_radial"
       cx="0"
       cy="0"
       r="1"
       gradientUnits="userSpaceOnUse"
       gradientTransform="matrix(-48.631363,-154.74738,107.10176,-33.658111,150.634,256.032)">
      <stop
         stop-color="#00BCFF"
         stop-opacity="0.76"
         id="stop225" />
      <stop
         offset="0.57273"
         stop-color="#00BAFC"
         stop-opacity="0"
         id="stop227" />
    </radialGradient>
    <clipPath
       id="clip0">
      <rect
         width="396.5"
         height="289"
         fill="#ffffff"
         transform="translate(58.1699,111.5)"
         id="rect230"
         x="0"
         y="0" />
    </clipPath>
  </defs>
</svg>
