<svg xmlns="http://www.w3.org/2000/svg" xmlns:xlink="http://www.w3.org/1999/xlink" viewBox="0 0 65 65" fill="#fff" fill-rule="evenodd" stroke="#000" stroke-linecap="round" stroke-linejoin="round" width="300" height="300" font-family="Roboto" font-size="14" text-anchor="middle"><defs/><use xlink:href="#A" x=".5" y=".5"/><symbol id="A" overflow="visible"><svg viewBox="0 0 32 32" width="64" height="64" stroke="initial" fill="initial" fill-rule="initial"><defs><clipPath id="B"><path d="M-200-175H800v562H-200z" fill="none"/></clipPath><clipPath id="C"><circle cx="107" cy="106" r="102" fill="none"/></clipPath><clipPath id="D"><circle cx="107" cy="106" r="100" fill="none"/></clipPath><clipPath id="E"><circle cx="107" cy="106" r="92" fill="none"/></clipPath><clipPath id="F"><path d="M135 94.06l26-19c2.27-1.85 4-1.42 4 2V135c0 3.84-2.16 3.4-4 2l-26-19zM47 77.2v43.2c.05 9.766 8.004 17.644 17.77 17.6h63a3.22 3.22 0 003.23-3.2V91.6c-.05-9.766-8.004-17.644-17.77-17.6h-63A3.22 3.22 0 0047 77.2z" fill="none" clip-rule="evenodd"/></clipPath></defs><g clip-path="url(#B)" transform="translate(0 -178)"><path d="M232 61h366v90H232z" fill="#4a8cff"/></g><g transform="matrix(.15686 0 0 .15686 -.784 -.627)" clip-path="url(#B)"><g clip-path="url(#C)"><path d="M0-1h214v214H0z" fill="#e5e5e4"/></g><g clip-path="url(#D)"><path d="M2 1h210v210H2z" fill="#fff"/></g><g clip-path="url(#E)"><path d="M10 9h194v194H10z" fill="#4a8cff"/></g><g clip-path="url(#F)"><path d="M42 69h128v74H42z" fill="#fff"/></g></g><g clip-path="url(#B)" transform="translate(0 -178)"><path d="M232 19.25h180v38.17H232z" fill="#90908f"/></g></svg></symbol></svg>