<?xml version="1.0" standalone="no"?>
<!DOCTYPE svg PUBLIC "-//W3C//DTD SVG 20010904//EN"
 "http://www.w3.org/TR/2001/REC-SVG-20010904/DTD/svg10.dtd">
<svg version="1.0" xmlns="http://www.w3.org/2000/svg"
 width="1860.000000pt" height="1860.000000pt" viewBox="0 0 1860.000000 1860.000000"
 preserveAspectRatio="xMidYMid meet">
<metadata>
Created by potrace 1.11, written by Peter Selinger 2001-2013
</metadata>
<g transform="translate(0.000000,1860.000000) scale(0.100000,-0.100000)"
fill="#000000" stroke="none">
<path d="M9765 18203 c-137 -6 -452 -34 -595 -54 -919 -125 -1670 -430 -2300
-933 -164 -131 -439 -407 -572 -574 -528 -661 -860 -1494 -954 -2387 -20 -195
-33 -223 -129 -277 -155 -88 -234 -168 -306 -313 -67 -135 -69 -155 -69 -735
0 -566 3 -596 60 -718 44 -95 112 -185 183 -242 63 -52 209 -130 241 -130 11
0 16 -5 13 -12 -133 -313 -214 -546 -275 -793 -190 -764 -188 -1561 5 -2305
53 -204 59 -246 43 -296 -7 -20 -45 -72 -88 -118 -113 -122 -188 -228 -248
-350 -85 -175 -114 -338 -114 -638 0 -312 59 -552 186 -754 75 -119 149 -201
251 -278 180 -135 352 -197 668 -242 l30 -4 1 -147 c1 -233 40 -406 135 -598
167 -338 482 -574 872 -651 45 -8 154 -18 242 -21 149 -5 262 4 436 33 l36 6
28 -88 c54 -175 148 -335 273 -466 169 -176 371 -285 621 -332 108 -21 330
-21 447 -1 227 40 479 152 649 291 l51 41 85 -63 c169 -127 416 -234 622 -270
141 -25 399 -15 531 20 383 100 687 393 807 776 12 41 26 79 30 84 4 4 54 0
111 -10 78 -14 152 -19 303 -19 215 0 299 12 459 62 358 113 642 386 771 743
51 141 66 232 72 428 6 207 -6 185 108 197 75 8 201 37 286 66 262 90 486 284
608 527 45 90 96 250 117 367 22 123 26 473 6 610 -36 253 -133 449 -321 649
-88 93 -111 130 -111 178 0 50 68 278 95 320 44 67 137 118 215 118 68 0 133
-31 192 -91 110 -113 304 -436 372 -619 l17 -45 -51 -85 c-407 -677 -348
-1536 148 -2151 85 -106 261 -271 373 -352 113 -81 378 -215 509 -257 1095
-349 2234 343 2436 1480 26 148 26 472 0 620 -70 396 -252 745 -532 1023 -208
205 -435 347 -727 452 -98 35 -150 84 -173 161 -15 51 -14 62 20 281 189 1232
200 2374 31 3398 -196 1197 -649 2262 -1320 3105 -296 371 -698 762 -1070
1042 -1187 890 -2759 1359 -4510 1346 -143 -1 -291 -3 -330 -5z m3963 -4588
c59 -32 91 -66 125 -129 22 -41 22 -44 22 -556 0 -512 0 -515 -22 -556 -34
-63 -66 -97 -125 -129 l-53 -30 -4090 -3 c-3628 -2 -4095 0 -4142 13 -74 22
-132 70 -168 140 l-30 59 -3 489 c-2 426 -1 496 13 538 30 90 91 152 184 185
29 11 801 13 4136 11 l4100 -2 53 -30z m-331 -1825 c50 -22 75 -68 171 -305
151 -376 242 -745 288 -1167 21 -187 24 -638 5 -813 -32 -307 -95 -634 -132
-686 -25 -36 -89 -68 -134 -69 -18 0 -102 35 -205 84 -763 369 -1742 588
-3020 677 -250 17 -1044 23 -1325 10 -1326 -61 -2422 -289 -3229 -670 -148
-70 -180 -78 -244 -60 -71 20 -125 79 -145 160 -47 189 -82 453 -98 732 -38
663 106 1402 392 2005 l58 122 3788 0 c3705 0 3789 -1 3830 -20z m-3072 -2680
c623 -40 1128 -107 1604 -211 1181 -260 2018 -733 2155 -1219 33 -119 45 -362
25 -525 -26 -212 -91 -358 -214 -480 -155 -156 -361 -224 -675 -225 -144 0
-184 -13 -237 -73 -50 -57 -53 -103 -19 -282 18 -93 21 -275 5 -361 -53 -302
-250 -544 -523 -643 -230 -83 -515 -81 -801 5 -156 47 -213 43 -286 -23 -44
-39 -54 -66 -69 -179 -40 -305 -190 -533 -425 -645 -133 -64 -225 -82 -385
-76 -144 5 -239 26 -365 82 -92 41 -241 145 -330 230 -88 85 -114 101 -172
111 -73 11 -114 -9 -224 -111 -156 -146 -303 -233 -479 -285 -114 -33 -317
-39 -431 -12 -155 37 -268 101 -370 209 -127 133 -192 280 -223 499 -19 139
-46 184 -128 219 -54 22 -93 19 -225 -19 -328 -94 -629 -88 -861 20 -232 107
-380 290 -454 562 -28 103 -30 322 -4 432 37 155 31 210 -26 275 -45 52 -91
63 -283 68 -140 4 -188 10 -270 31 -269 69 -435 213 -516 448 -49 144 -62 249
-56 458 7 210 21 291 71 395 45 95 107 175 219 282 563 538 1816 925 3347
1033 416 30 1246 35 1625 10z m6487 -570 c280 -59 520 -186 726 -384 134 -129
217 -240 297 -398 115 -226 159 -411 159 -668 0 -115 -6 -192 -18 -255 -56
-297 -187 -552 -390 -763 -129 -134 -240 -217 -398 -297 -224 -114 -411 -158
-663 -159 -244 0 -426 40 -634 140 -156 74 -266 151 -388 268 -163 156 -275
320 -352 513 -278 693 -10 1458 644 1841 139 82 365 158 537 181 113 15 366 5
480 -19z"/>
<path d="M7175 11005 c-5 -2 -22 -6 -37 -9 -38 -9 -95 -61 -120 -110 -18 -36
-20 -52 -15 -146 22 -394 304 -743 689 -850 387 -108 811 46 1038 375 113 165
194 459 160 586 -41 154 -224 206 -335 95 -45 -46 -65 -98 -65 -172 -1 -221
-182 -440 -415 -499 -290 -74 -597 121 -660 420 -8 39 -15 89 -15 112 0 23 -5
54 -11 70 -12 33 -64 90 -99 108 -27 13 -98 26 -115 20z"/>
<path d="M10448 10996 c-54 -20 -86 -43 -109 -79 -36 -59 -42 -102 -29 -211
38 -324 223 -597 506 -743 476 -246 1053 -55 1291 427 67 138 109 356 89 464
-8 42 -63 109 -110 133 -40 21 -132 21 -171 1 -73 -39 -110 -103 -118 -208
-16 -201 -122 -368 -288 -455 -269 -141 -605 -38 -738 229 -37 73 -61 163 -61
226 0 25 -5 63 -11 85 -15 55 -83 119 -142 133 -56 15 -63 14 -109 -2z"/>
<path d="M8075 8271 c-97 -45 -141 -159 -100 -258 21 -50 38 -67 120 -123 294
-199 686 -345 1092 -407 156 -24 565 -24 728 0 387 57 768 192 1130 400 89 51
113 72 136 122 48 103 1 226 -103 270 -64 26 -118 20 -200 -25 -391 -214 -667
-313 -1018 -367 -158 -24 -472 -23 -630 1 -321 49 -654 171 -880 322 -47 31
-99 62 -117 70 -44 19 -110 17 -158 -5z"/>
<path d="M3305 6444 c-274 -42 -540 -150 -805 -324 l-116 -77 -94 -6 c-324
-23 -603 -126 -855 -317 -449 -340 -894 -1128 -1098 -1945 -98 -392 -131 -664
-132 -1075 0 -357 16 -526 81 -831 108 -512 353 -1033 678 -1439 104 -129 287
-330 351 -385 l53 -45 316 0 317 0 -88 67 c-648 491 -1067 1132 -1228 1878
-181 835 -45 1775 376 2615 250 497 507 804 794 948 180 90 347 127 575 126
187 -1 315 -20 518 -78 232 -67 551 -211 757 -342 197 -125 195 -124 254 -124
67 0 120 27 165 83 29 36 31 45 31 116 0 70 -3 81 -28 115 -38 49 -141 120
-336 232 -188 107 -389 198 -596 270 l-149 52 95 30 c159 51 256 66 434 66
183 1 260 -12 448 -74 691 -230 1350 -993 1830 -2120 274 -643 481 -1384 616
-2200 45 -272 92 -624 94 -712 2 -53 -1 -60 -31 -90 -26 -27 -40 -33 -75 -33
-42 0 -43 1 -342 301 -304 305 -435 425 -715 654 -683 559 -1566 1131 -2418
1566 -185 95 -207 104 -258 104 -191 0 -278 -232 -133 -354 18 -15 76 -49 129
-76 117 -59 164 -107 179 -184 14 -66 6 -94 -67 -246 -246 -514 -426 -1340
-497 -2285 -9 -121 -23 -239 -30 -262 l-12 -43 3253 0 3254 0 0 628 c0 588 -2
629 -19 667 -39 84 -100 115 -229 115 -452 0 -955 116 -1292 297 -172 93 -392
260 -432 329 -10 17 -38 124 -63 238 -83 384 -196 799 -305 1121 -46 138 -49
163 -17 193 33 31 76 28 128 -10 24 -17 109 -75 189 -128 698 -465 1437 -742
2230 -836 295 -35 793 -29 1110 12 927 121 1914 542 2812 1197 139 102 145
105 203 116 123 23 911 -180 1007 -259 80 -66 111 -194 68 -288 -40 -88 -310
-404 -554 -647 -679 -677 -1446 -1099 -2296 -1264 -209 -41 -506 -71 -693 -71
-128 0 -189 -31 -228 -115 -17 -38 -19 -79 -19 -667 l0 -628 3235 0 3235 0 -5
37 c-3 21 -10 83 -15 138 -38 361 -109 757 -195 1090 -442 1708 -1489 2691
-3240 3044 -251 50 -386 67 -431 53 -21 -6 -109 -64 -194 -128 -177 -133 -496
-347 -681 -457 -1871 -1114 -3738 -1042 -5396 207 -374 281 -798 695 -941 919
-119 184 -255 377 -358 507 -128 160 -410 447 -544 552 -340 269 -686 429
-1046 483 -123 19 -396 18 -519 -1z"/>
</g>
</svg>
