<?xml version="1.0" encoding="utf-8"?>
<!-- Generator: Adobe Illustrator 18.1.1, SVG Export Plug-In . SVG Version: 6.00 Build 0)  -->
<svg version="1.1" xmlns="http://www.w3.org/2000/svg" xmlns:xlink="http://www.w3.org/1999/xlink" x="0px" y="0px"
	 viewBox="0 0 850.4 298" enable-background="new 0 0 850.4 298" xml:space="preserve">
<g id="FOND">
	<rect x="0" y="0" fill="#FFFFFF" width="850.4" height="298"/>
</g>
<g id="LOGOTYPE">
	<g>
		<defs>
			<rect id="SVGID_1_" x="0" y="0" width="850.4" height="298"/>
		</defs>
		<clipPath id="SVGID_2_">
			<use xlink:href="#SVGID_1_"  overflow="visible"/>
		</clipPath>
		<g clip-path="url(#SVGID_2_)">
			<path fill="#191E4F" d="M758.6,158.1l-7-1.1c-6.3-0.9-11.2-2.3-11.2-7c0-4.8,4.8-8.1,12.9-8.1c8.5,0,16.9,3.3,21.1,5.8l6.4-11.6
				c-7-4.6-16.9-7.2-27.6-7.2c-17.4,0-28.2,8.3-28.2,21.8c0,10.9,8,17.9,23.1,20l7.1,0.9c8.1,1.1,11.8,3.7,11.8,7.5
				c0,5.1-5.3,8.3-15.5,8.3c-11.1,0-17.6-3.2-22.5-7l-6.9,11.2c10,7.4,22.2,8.7,29.2,8.7c19.6,0,31-9.2,31-22.3
				C782.3,166.6,773.4,160.3,758.6,158.1z"/>
			<path fill="#191E4F" d="M378.7,128.9c-20.1,0-33.9,14.5-33.9,35.8c0,21.6,14.4,35.8,34.8,35.8c10.3,0,19.7-2.5,28-9.6l-7.4-10.6
				c-5.6,4.5-12.9,7.2-19.7,7.2c-9.7,0-18.3-5.1-20.3-17.4h50.3c0.1-1.7,0.3-3.6,0.3-5.5C410.8,143.4,397.7,128.9,378.7,128.9z
				 M360.3,158.9c1.6-10,7.5-16.8,18.1-16.8c9.5,0,15.6,6.2,17.3,16.8H360.3z"/>
			<path fill="#191E4F" d="M519.3,128.9c-21.1,0-36.6,15.4-36.6,35.8c0,20.4,15.6,35.8,36.6,35.8c21,0,36.7-15.4,36.7-35.8
				C556,144.3,540.4,128.9,519.3,128.9z M519.3,186.6c-12.2,0-21.3-9-21.3-21.8c0-12.9,9.2-21.8,21.3-21.8c12.2,0,21.4,9,21.4,21.8
				C540.7,177.6,531.5,186.6,519.3,186.6z"/>
			<path fill="#191E4F" d="M603,128.9c-7,0-15.4,2.1-20.9,10.1v-8.3h-14.8v68.1h14.9V161c0-11.7,8-18,17.6-18
				c10,0,15.9,6.4,15.9,17.9v37.9h14.9V156C630.7,140.1,619.2,128.9,603,128.9z"/>
			<path fill="#191E4F" d="M696.8,138.9c-4.7-6-11.7-10-21.4-10c-19.1,0-34.1,15-34.1,35.8c0,20.8,15,35.8,34.1,35.8
				c9.7,0,16.7-3.9,21.4-10v8.2h14.9v-97h-14.9V138.9z M677.1,186.6c-12.8,0-20.6-9.9-20.6-21.8c0-11.9,7.7-21.8,20.6-21.8
				c12.3,0,20.6,9.4,20.6,21.8C697.7,177.2,689.4,186.6,677.1,186.6z"/>
			<path fill="#191E4F" d="M467.1,130.7l-20.2,47.1l-20.1-47.1h-16.3l28.2,66.2l-2.3,5.3c-1.9,4.6-6.4,7.5-11.4,7.5h-3.3v14.9h5
				c9.9,0,18.9-5.9,22.8-15.1l33.8-78.9H467.1z"/>
			<path fill="#191E4F" d="M318.2,148c8.1-3.3,13.6-11.5,13.6-20.9c0-12.7-6.7-27.8-38.4-27.8h-31.9l0,99.5h35.8
				c31.7,0,38.4-15.1,38.4-27.8C335.8,153.4,318.2,148,318.2,148z M277.7,114.3h15.1c11.5,0,22.1,1.7,22.1,14
				c0,12.6-10.5,14.3-21.9,14.3h-15.2V114.3z M296.7,183.7h-19v-28.3h19.2c11.4,0,21.9,1.7,21.9,14.3
				C318.8,182,308.2,183.7,296.7,183.7z"/>
		</g>
		<g clip-path="url(#SVGID_2_)">
			<linearGradient id="SVGID_3_" gradientUnits="userSpaceOnUse" x1="60.451" y1="102.3962" x2="192.5347" y2="102.3962">
				<stop  offset="0" style="stop-color:#0055FF"/>
				<stop  offset="1" style="stop-color:#00D2FF"/>
			</linearGradient>
			<path fill="url(#SVGID_3_)" d="M91,122.3h67c14.3,0,27,5.5,36.5,14.3c0.3-1.2,0.6-2.4,0.9-3.6v0c7.1-33.5-18.4-65-52.6-65h-40.3
				L91,122.3z"/>
			<linearGradient id="SVGID_4_" gradientUnits="userSpaceOnUse" x1="79.6503" y1="175.6976" x2="79.6503" y2="175.6976">
				<stop  offset="0" style="stop-color:#294DFF"/>
				<stop  offset="1" style="stop-color:#00D2FF"/>
			</linearGradient>
			<line fill="url(#SVGID_4_)" x1="79.7" y1="175.7" x2="79.7" y2="175.7"/>
			<linearGradient id="SVGID_5_" gradientUnits="userSpaceOnUse" x1="222.8023" y1="183.2749" x2="73.9008" y2="183.2749">
				<stop  offset="0" style="stop-color:#0055FF"/>
				<stop  offset="1" style="stop-color:#00D2FF"/>
			</linearGradient>
			<path fill="url(#SVGID_5_)" d="M194.6,136.7c-6.5,23-27.5,39-51.7,39H79.7l-11.5,54.2H158c25.4,0,47.3-17.8,52.6-42.6h0
				C214.8,167.8,207.8,149,194.6,136.7z"/>
		</g>
	</g>
</g>
</svg>
