<svg xmlns="http://www.w3.org/2000/svg" viewBox="0 0 385 125"><path style="fill:#283250;" class="a" d="M281.47,42.36a12.09,12.09,0,1,0-12.09-12.09A12.09,12.09,0,0,0,281.47,42.36ZM127,73.19a37.81,37.81,0,0,0-4.39-11.9,30.33,30.33,0,0,0-25.66-13.9C76.74,47.31,65.74,65.33,65.74,79.3c0,12.78,7.85,31.16,31.57,31.16S126.06,88,126.06,88s-2-.89-2.06-.83c-3.51,6.4-8.65,11-15,11-21,0-20-24.84-20-24.84ZM97.49,50.54c6.73,0,7.21,19.68,7.21,19.68H89.27S89.45,50.54,97.49,50.54ZM52,94.07V57.33H67.81V48.05c-10.65,0-22.29-4.66-21.27-18.95.38-5.4,4.62-9.29,6.38-10.53a1.57,1.57,0,0,1,1-.34A1.61,1.61,0,0,1,55,21a12.1,12.1,0,1,0,16-1.17s-5.82-5.4-16.18-5.4C41.4,14.41,29.05,30,29.05,48.05v0H13.49v9.24H29.05V94.07a7.36,7.36,0,0,1-7.36,7.32v7.32h7.36v0H52v0h7.38v-7.32A7.37,7.37,0,0,1,52,94.07Zm201.85.6V12.5s-8.68,2.89-15.08,4.58c-6.23,1.66-14.46,3.28-14.87,3.37h-.22v7.32c3.72,0,7.23,2.87,7.23,6.36v17.5a22.79,22.79,0,0,0-14.5-4.87C197.78,46.76,188,67.23,188,84.52s9,27.76,21,27.76S230.87,102,230.87,102l0,10.55a130.56,130.56,0,0,1,14.59-2.7,144.05,144.05,0,0,1,15.6-1.18V101.3A7.29,7.29,0,0,1,253.84,94.67ZM230.9,93.26c0,4.3-3.27,8.26-7.26,8.26C218,101.52,212,94.43,212,76.85s5.17-26.3,9.89-26.3c4.18,0,8.18,3.91,9,4.83ZM337.46,47.41c-18.81,0-34,14-34,31.3s15.24,31.31,34,31.31,34.05-14,34.05-31.31S356.27,47.41,337.46,47.41Zm0,59.38c-5.26,0-9.52-12.43-9.52-27.75s4.26-27.76,9.52-27.76S347,63.71,347,79,342.72,106.79,337.46,106.79ZM176.84,46.57A12,12,0,0,0,167.6,51s-8,10.2-8,10.2V46.67s-7.5,2.7-14.5,4.62S129.46,55,129.46,55l-.08.09v7.32a7.29,7.29,0,0,1,7.26,6.76v25a7.31,7.31,0,0,1-7.31,7.21v7.3h37.58v-7.3a7.33,7.33,0,0,1-7.33-7.32V69.8c.12-4.43,1.79-6.84,3.25-7.84s3.11,2.58,5,4.72a12.07,12.07,0,1,0,9-20.11ZM295.65,93.94V46.67a147.67,147.67,0,0,1-14.4,5.21,123.76,123.76,0,0,1-15.53,3.22v7.32c3.32,0,7,2.27,7,5.25V94.13a7.31,7.31,0,0,1-7.3,7.14v7.32h7.3v0h22.95v0H303v-7.32A7.32,7.32,0,0,1,295.65,93.94Z"/></svg>