<svg xmlns="http://www.w3.org/2000/svg" width="395.51" height="91.806">
    <defs>
        <clipPath id="a">
            <path d="M0 841.89h595.28V0H0v841.89z"/>
        </clipPath>
    </defs>
    <g clip-path="url(#a)" transform="matrix(1.25 0 0 -1.25 -174.49 572.13)">
        <path fill="#2b2b2a" d="M201.21 440.45v.063l-.007-.002c-.15 1.599-1.548 2.794-3.158 2.683-1.635-.115-2.867-1.532-2.754-3.164h-.002v-41.853c0-2.17-.776-4.033-2.331-5.587-1.554-1.555-3.368-2.332-5.44-2.332-2.393 0-4.366.777-5.921 2.332-1.53 1.505-2.319 3.403-2.368 5.7v17.417h-.01c0 .018.002.036.002.055-.072 1.63-1.452 2.896-3.084 2.827-1.569-.069-2.796-1.348-2.826-2.896h-.004v-17.516c0-3.797 1.358-7.079 4.071-9.843 2.665-2.714 5.97-4.07 9.918-4.07 3.849 0 7.13 1.356 9.844 4.07 2.713 2.715 4.07 5.994 4.07 9.843v41.873c.008.129.011.259.001.391 0 .002 0 .006-.001.009M260.36 446.63c1.009 0 1.868.364 2.578 1.093s1.065 1.596 1.065 2.606c0 1.027-.355 1.896-1.065 2.605-.728.729-1.588 1.093-2.578 1.093-1.009 0-1.869-.364-2.578-1.093-.712-.727-1.065-1.596-1.065-2.605 0-1.029.353-1.901 1.065-2.621.709-.719 1.569-1.078 2.578-1.078M198.17 454.03c-1.009 0-1.869-.364-2.579-1.093-.71-.727-1.064-1.596-1.064-2.605 0-1.029.354-1.901 1.064-2.621.71-.719 1.57-1.078 2.579-1.078s1.868.364 2.578 1.093c.711.729 1.065 1.596 1.065 2.606 0 1.027-.354 1.896-1.065 2.605-.728.729-1.588 1.093-2.578 1.093M226.21 413.09c-.05-2.294-.84-4.194-2.369-5.697-1.579-1.555-3.404-2.332-5.477-2.332-2.145 0-4.057.777-5.736 2.332-1.652 1.528-2.479 3.428-2.479 5.697v13.619c.024 2.122.802 3.947 2.332 5.478 1.554 1.553 3.367 2.33 5.439 2.33 2.369 0 4.342-.777 5.921-2.33 1.529-1.506 2.319-3.405 2.369-5.7V413.09zm-8.067 27.423c-3.849 0-7.13-1.358-9.843-4.072-2.715-2.714-4.071-5.994-4.071-9.843V412.98c0-3.849 1.356-7.131 4.071-9.845 2.713-2.714 5.994-4.07 9.843-4.07 3.847 0 7.141 1.356 9.88 4.07 2.738 2.714 4.108 5.996 4.108 9.845v13.618c0 3.849-1.37 7.129-4.108 9.843-2.739 2.714-6.033 4.072-9.88 4.072M373.11 419.82v6.771c0 2.171.777 4.035 2.332 5.589 1.553 1.554 3.367 2.33 5.438 2.33 2.371 0 4.343-.778 5.923-2.336 1.43-1.409 2.205-3.153 2.33-5.23l-16.023-7.124zm21.98 6.771c0 3.998-1.37 7.278-4.106 9.844-2.886 2.714-6.181 4.072-9.881 4.072-3.848 0-7.13-1.358-9.845-4.072-2.713-2.714-4.069-5.994-4.069-9.844v-13.618c0-3.848 1.356-7.131 4.069-9.844 2.715-2.714 5.997-4.071 9.845-4.071 3.847 0 7.031 1.334 9.549 3.998 2.958 3.158 4.438 6.464 4.438 9.917v2.319c-.018 1.627-1.339 2.942-2.971 2.942-1.489 0-2.719-1.096-2.937-2.524l-.012.003v-.096c-.014-.117-.024-.235-.024-.355 0-.122.01-.239.024-.357v-1.821c-.05-2.294-.839-4.195-2.367-5.698-1.58-1.554-3.406-2.332-5.478-2.332-2.368 0-4.33.795-5.883 2.387-1.555 1.591-2.332 3.557-2.332 5.9l21.98 9.772v3.478zM358.91 413.09c-.05-2.294-.841-4.194-2.368-5.697-1.58-1.555-3.405-2.332-5.476-2.332-2.147 0-4.059.777-5.738 2.332-1.652 1.528-2.48 3.428-2.48 5.697v13.619c.026 2.122.803 3.947 2.333 5.478 1.555 1.553 3.368 2.33 5.44 2.33 2.368 0 4.341-.777 5.921-2.33 1.527-1.506 2.318-3.405 2.368-5.7V413.09zm2.988 44.048c-1.609 0-2.916-1.277-2.967-2.871l-.021-.001v-16.271c-2.344 1.678-5.032 2.518-8.067 2.518-3.849 0-7.128-1.358-9.843-4.072-2.714-2.714-4.07-5.994-4.07-9.843V412.98c0-3.849 1.356-7.131 4.07-9.845 2.715-2.714 5.994-4.07 9.843-4.07 3.848 0 7.143 1.356 9.88 4.07 2.739 2.714 4.109 5.996 4.109 9.845v40.732c.022.149.038.299.038.454 0 1.641-1.331 2.972-2.972 2.972"/>
        <path fill="#2b2b2a" d="M328.54 413.09c-.05-2.294-.838-4.194-2.368-5.697-1.58-1.555-3.403-2.332-5.476-2.332-2.147 0-4.059.777-5.738 2.332-1.652 1.528-2.48 3.428-2.48 5.697v2.235c.003.071.012.138.012.208v3.072l-.012-.004v8.108c.026 2.122.803 3.947 2.333 5.478 1.555 1.553 3.368 2.33 5.44 2.33 2.37 0 4.341-.777 5.921-2.33 1.53-1.506 2.318-3.405 2.368-5.7V413.09zm-8.067 27.423c-3.849 0-7.128-1.358-9.843-4.072-2.714-2.714-4.069-5.994-4.069-9.843v-11.365c-.046-2.877-1.099-5.333-3.174-7.359-2.122-2.099-4.651-3.145-7.587-3.145-2.985 0-5.527 1.046-7.624 3.145-1.911 1.91-2.941 4.174-3.111 6.784v1.282l-.033-.004v22.688c0 2.961 1.047 5.483 3.144 7.568s4.639 3.127 7.624 3.127c2.936 0 5.465-1.048 7.587-3.145.863-.855 1.786-2.264 2.541-3.608.803-1.382 2.573-1.851 3.957-1.049 1.295.753 1.787 2.357 1.181 3.693l.007.004c-.806 1.772-1.962 3.413-3.469 4.919-3.207 3.233-7.141 4.848-11.804 4.848-4.614 0-8.549-1.609-11.804-4.828-3.257-3.22-4.886-7.1-4.886-11.638v-22.982c0-.239.023-.467.032-.703-.027-3.936-.802-5.606-2.329-7.252-1.553-1.679-3.367-2.517-5.44-2.517-2.368 0-4.342.777-5.921 2.332-1.529 1.503-2.318 3.403-2.368 5.697v27.423l-.016-.002c-.001.013.001.024 0 .036-.069 1.629-1.445 2.895-3.073 2.826-1.631-.069-2.895-1.446-2.827-3.075 0-.011.003-.021.003-.033h-.007v-26.904l-.025-.011c0-2.172-.777-4.095-2.332-5.772-1.554-1.679-3.368-2.517-5.44-2.517-2.369 0-4.341.777-5.921 2.332-1.529 1.503-2.319 3.403-2.367 5.697v41.468c.003.062.009.123.009.186 0 1.638-1.328 2.965-2.965 2.965-1.639 0-2.965-1.327-2.965-2.965v-.009h-.002V412.98c0-3.849 1.37-7.131 4.109-9.845s6.032-4.07 9.88-4.07 7.129 1.356 9.844 4.07c.413.414.785.848 1.135 1.286.355-.438.729-.872 1.147-1.286 2.738-2.714 6.032-4.07 9.881-4.07s7.129 1.356 9.843 4.07c.669.669 1.254 1.374 1.758 2.111.386-.468.795-.927 1.243-1.37 3.23-3.207 7.166-4.811 11.804-4.811 4.613 0 8.548 1.611 11.804 4.83.45.445.861.906 1.249 1.376.509-.746 1.101-1.458 1.777-2.136 2.715-2.714 5.994-4.07 9.843-4.07 3.848 0 7.143 1.356 9.882 4.07 2.737 2.714 4.107 5.996 4.107 9.845v13.618c0 3.849-1.37 7.129-4.107 9.843-2.739 2.714-6.034 4.072-9.882 4.072"/>
        <path fill="#e9ce37" d="M433.55 396.93c-.689 0-1.379.262-1.905.788-1.051 1.054-1.051 2.76 0 3.811l17.846 17.846-17.846 17.847c-1.051 1.053-1.051 2.759 0 3.811 1.052 1.053 2.759 1.053 3.812 0l19.752-19.752c.506-.505.789-1.191.789-1.906s-.283-1.401-.789-1.905l-19.752-19.752c-.526-.526-1.216-.788-1.907-.788M162.04 397.64c-.689 0-1.378.263-1.905.789l-19.753 19.752c-.506.505-.789 1.19-.789 1.905 0 .714.283 1.4.789 1.906l19.752 19.752c1.053 1.053 2.759 1.053 3.811 0 1.053-1.052 1.053-2.759 0-3.811l-17.847-17.847 17.847-17.846c1.053-1.051 1.053-2.758 0-3.811-.525-.526-1.216-.789-1.905-.789M401.74 390.9c-.341 0-.688.065-1.025.204-1.377.567-2.033 2.142-1.465 3.519l21.248 51.558c.567 1.377 2.142 2.032 3.519 1.465 1.374-.566 2.032-2.142 1.464-3.518l-21.248-51.557c-.43-1.042-1.432-1.671-2.493-1.671"/>
    </g>
</svg>