<?xml version="1.0" encoding="utf-8"?>
<!-- Generator: Adobe Illustrator 22.0.1, SVG Export Plug-In . SVG Version: 6.00 Build 0)  -->
<svg version="1.1" id="Layer_1" xmlns="http://www.w3.org/2000/svg" xmlns:xlink="http://www.w3.org/1999/xlink" x="0px" y="0px"
	 viewBox="0 0 1172 178" style="enable-background:new 0 0 1172 178;" xml:space="preserve">
<path d="M1166.2,30.7h-31.4c-2.2,0-3.3,1-3.3,3v137.8c0,3.9-1.9,5.8-5.8,5.8h-23.1c-4,0-6.1-1.9-6.1-5.8V33.7c0-2-1-3-3-3h-31.4
	c-3.9,0-5.8-1.9-5.8-5.8V6.2c0-3.9,1.9-5.8,5.8-5.8h104c3.9,0,5.8,1.9,5.8,5.8v18.7C1172,28.8,1170.1,30.7,1166.2,30.7z
	 M1056.2,170.7c1.7,4.4,0.1,6.6-4.7,6.6h-22.3c-3.3,0-5.7-0.4-7.2-1.1c-1.5-0.7-2.7-2.3-3.6-4.7L991,112.1h-18.4c-2.2,0-3.3,1-3.3,3
	v56.4c0,3.9-1.9,5.8-5.8,5.8h-23.4c-3.9,0-5.8-1.9-5.8-5.8V6.2c0-3.9,1.9-5.8,5.8-5.8h65.5c14.3,0,25.5,3.9,33.6,11.8
	c8.1,7.9,12.1,19,12.1,33.3V67c0,20.7-8.2,34.5-24.5,41.3v1.1L1056.2,170.7z M1016.3,46.9c0-5.7-1.4-9.8-4.1-12.4
	c-2.8-2.6-7.1-3.9-12.9-3.9h-27c-2,0-3,1-3,3V81c0,2,1,3,3,3h27c5.9,0,10.2-1.2,12.9-3.7c2.8-2.5,4.1-6.5,4.1-12V46.9z M920.3,177.3
	h-26.4c-2,0-3.4-0.4-4.1-1.2c-0.7-0.8-1.3-2.3-1.7-4.5l-7.7-30.3h-53.6l-7.7,30.3c-0.4,2.2-1,3.7-1.8,4.5c-0.8,0.8-2.2,1.2-4,1.2
	h-26.4c-3.3,0-4.4-1.9-3.3-5.8L827.1,6.2c1.3-3.9,4-5.8,8.3-5.8h36.6c4.6,0,7.3,1.9,8.3,5.8l43.5,165.3
	C924.7,175.4,923.6,177.3,920.3,177.3z M854.3,33.7h-1.1l-19.8,79.5h40.7L854.3,33.7z M767.1,177.3h-22.6c-3.9,0-5.8-1.9-5.8-5.8
	V41.1h-1.1l-28.1,92.1c-1.1,3.7-3.4,5.5-6.9,5.5h-23.1c-3.5,0-5.8-1.8-6.9-5.5l-28.6-92.4H643v130.7c0,2.2-0.4,3.7-1.1,4.5
	c-0.7,0.8-2.3,1.2-4.7,1.2h-22.6c-3.9,0-5.8-1.9-5.8-5.8V6.2c0-3.9,1.9-5.8,5.8-5.8h41c2.6,0,4.3,1.3,5.2,3.9l29.2,97.1h1.6
	l29.4-97.1c0.5-2.6,2.3-3.9,5.2-3.9h40.7c3.9,0,5.8,1.9,5.8,5.8v165.3C772.9,175.4,770.9,177.3,767.1,177.3z M551.2,112.7v58.9
	c0,3.9-1.9,5.8-5.8,5.8H522c-3.8,0-5.8-1.9-5.8-5.8v-58.9l-50-105.5l-52,72l58.3,91.3c1.3,2.2,1.5,3.9,0.7,5.1
	c-0.8,1.2-2.5,1.8-5.1,1.8H448c-6.4,0-10.7-1.9-12.9-5.8L393,104.1l-17.3,20.4v47c0,3.9-1.9,5.8-5.8,5.8h-23.4
	c-3.9,0-5.8-1.9-5.8-5.8V6.2c0-3.9,1.9-5.8,5.8-5.8h23.4c3.8,0,5.8,1.9,5.8,5.8v78.4h0.5c1.5-4.4,4.3-10.1,8.5-17.1l41.8-61.3
	c2.4-3.9,6-5.8,10.7-5.8h27c1.3,0,2.2,0.2,2.9,0.7c0.7-0.5,1.6-0.7,2.6-0.7h29.2c2.9,0,5.1,1.9,6.6,5.8L533,73.1h1.9l27-66.8
	c1.3-3.9,3.5-5.8,6.6-5.8h29.2c1.8,0,3.2,0.5,4,1.6c0.8,1.1,0.8,2.6-0.1,4.4L551.2,112.7z M311.6,177.3h-23.4
	c-3.9,0-5.8-1.9-5.8-5.8V6.2c0-3.9,1.9-5.8,5.8-5.8h23.4c3.9,0,5.8,1.9,5.8,5.8v165.3C317.4,175.4,315.4,177.3,311.6,177.3z
	 M224.7,171.5c-0.9,3.9-3.1,5.8-6.6,5.8h-36c-3.9,0-6.1-1.9-6.9-5.8L132.5,6.8c-1.3-4.2,0.6-6.3,5.5-6.3h25.9c3.7,0,5.9,1.9,6.6,5.8
	l28.9,135.3h1.1L229.4,6.2c0.7-3.9,2.9-5.8,6.6-5.8h25.9c4.6,0,6.4,2.1,5.5,6.3L224.7,171.5z M74.2,79.1l58.3,91.3
	c1.3,2.2,1.5,3.9,0.7,5.1c-0.8,1.2-2.5,1.8-5.1,1.8h-20.1c-6.4,0-10.7-1.9-12.9-5.8L53,104.1l-17.3,20.4v47c0,3.9-1.9,5.8-5.8,5.8
	H6.6c-3.9,0-5.8-1.9-5.8-5.8V6.2c0-3.9,1.9-5.8,5.8-5.8h23.4c3.9,0,5.8,1.9,5.8,5.8v78.4h0.6c1.5-4.4,4.3-10.1,8.5-17.1L86.6,6.2
	c2.4-3.9,6-5.8,10.7-5.8h27c2,0,3.3,0.6,3.7,1.8c0.5,1.2,0,2.7-1.5,4.5L74.2,79.1z"/>
</svg>
