<svg version="1.2" xmlns="http://www.w3.org/2000/svg" viewBox="0 0 680 322" width="680" height="322">
	<title>logo couleur Leroy Agon - Copie-ai</title>
	<defs>
		<clipPath clipPathUnits="userSpaceOnUse" id="cp1">
			<path d="m699.29 334.55h2v-307.97h-2z"/>
		</clipPath>
	</defs>
	<style>
		.s0 { fill: #b8b6cf } 
		.s1 { fill: #20045d } 
		.s2 { fill: #bb2031 } 
		.s3 { fill: #594dc9 } 
		.s4 { fill: #2a3f6b } 
		.s5 { fill: #9f1d34 } 
	</style>
	<g id="Calque 1">
		<g id="&lt;Clip Group&gt;" clip-path="url(#cp1)">
			<path id="&lt;Path&gt;" class="s0" d="m697.3 24.5h6v312.1h-6z"/>
		</g>
		<g id="&lt;Group&gt;">
			<path id="&lt;Path&gt;" class="s1" d="m1031.7 273.4c0.2 4.2 2.1 8.1 8.2 8.1 5.7 0 8.3-3.5 8.3-7.8 0-4.6-2.1-6.9-7.1-9.2-3.3-1.5-4.3-2.6-4.3-4.8 0-2.1 1-3.5 3.2-3.5 2.8 0 3.3 2.6 3.4 4.1h4.3c-0.1-3.5-1.6-7.6-7.6-7.6-4.9 0-7.7 3.1-7.7 7.3 0 4.2 1.9 6.1 6.6 8.3 3.6 1.8 4.8 3.2 4.8 5.7 0 2.5-1.1 4.1-3.8 4.1-2.7 0-3.8-2.2-4-4.7z"/>
			<path id="&lt;Path&gt;" class="s1" d="m1017.6 273.1c-0.2 1.2-0.5 4.8-3.8 4.8-3.5 0-4.1-5.3-4.1-10.8 0-6.1 0.7-10.7 4.3-10.7 3.3 0 3.5 3.8 3.5 4.7h4.3c0-2.1-0.6-8.4-7.8-8.4-6.3 0-8.8 5.6-8.8 14.3 0 7.2 0.8 14.5 8.6 14.5 7.3 0 8-6.9 8.1-8.4z"/>
			<path id="&lt;Path&gt;" class="s1" d="m989.2 253.1v28h4.3v-28z"/>
			<path id="&lt;Path&gt;" class="s1" d="m963.9 281.1v-9.1c0-5 0-9.3-0.2-12.8h0.1c0.3 1.2 1.4 4.1 8 21.9h4.8v-28h-3.9v8.7c0 4.6 0.1 8.8 0.3 12.3h-0.1c-0.3-1.4-1.4-4.2-7.9-21h-5v28z"/>
			<path id="&lt;Compound Path&gt;" fill-rule="evenodd" class="s1" d="m948.4 266.9c0 10-2.6 14.6-8.9 14.6-5.9 0-8.7-4.5-8.7-14.7 0-9.9 3.3-14.1 8.9-14.1 6 0 8.7 4.5 8.7 14.2zm-4.4-0.1c0-7.1-1.2-10.4-4.4-10.4-3.1 0-4.3 3.7-4.3 10.4 0 7.1 1.2 11.1 4.3 11.1 3.3 0 4.4-3.8 4.4-11.1z"/>
			<path id="&lt;Compound Path&gt;" fill-rule="evenodd" class="s1" d="m919.7 275.2c0 3 0.1 4.4 0.4 5.9h-4.2c-0.4-1.3-0.5-3.6-0.5-6v-1c0-3.8-0.8-5.3-4.2-5.3h-2.6v12.3h-4.3v-28h8.2c4.9 0 7.6 2.7 7.6 7.5 0 4.1-2.1 5.9-3.6 6.4 2.3 1 3.2 3 3.2 7.1zm-3.9-14.4c0-2.6-1.2-4.1-4-4.1h-3.2v8.6h2.8c3.2 0 4.4-1.6 4.4-4.5z"/>
			<path id="&lt;Path&gt;" class="s1" d="m883.6 281.1h4.4v-24.2h6v-3.8h-16.4v3.8h6z"/>
			<path id="&lt;Path&gt;" class="s1" d="m864.2 273.1c-0.1 1.2-0.5 4.8-3.7 4.8-3.6 0-4.2-5.3-4.2-10.8 0-6.1 0.8-10.7 4.3-10.7 3.4 0 3.5 3.8 3.6 4.7h4.3c-0.1-2.1-0.6-8.4-7.8-8.4-6.4 0-8.9 5.6-8.9 14.3 0 7.2 0.8 14.5 8.6 14.5 7.4 0 8-6.9 8.1-8.4z"/>
			<path id="&lt;Path&gt;" class="s1" d="m840.8 264.5h-9.1v-7.6h9.6v-3.8h-13.9v28h13.9l0.6-3.8h-10.2v-9h9.1z"/>
			<path id="&lt;Path&gt;" class="s1" d="m803.3 281.1h13.6l0.5-3.7h-9.7v-24.3h-4.4z"/>
			<path id="&lt;Path&gt;" class="s1" d="m791.6 264.5h-9.1v-7.6h9.6v-3.8h-13.9v28h13.9l0.6-3.8h-10.2v-9h9.1z"/>
			<path id="&lt;Path&gt;" class="s1" d="m922.5 237.1v-15.6c0-8.7 0-16.1-0.4-22.1h0.1c0.6 2.1 2.4 7 13.9 37.7h8.3v-48.3h-6.7v15.1c0 7.9 0 15.1 0.4 21.1h-0.1c-0.5-2.3-2.5-7.2-13.6-36.2h-8.7v48.3z"/>
			<path id="&lt;Path&gt;" class="s1" d="m857.2 210.2h-20.5v6.3h13.3v0.5c0 7.6-2.6 14.7-13.3 14.7-10.9 0-15.2-9.2-15.2-19.1 0-10.6 4.2-19.6 15.5-19.6 7.9 0 11.6 4 13.1 9.1h7.4c-1.4-8.8-8.7-15.2-20.4-15.2-15.1 0-23.3 11.2-23.3 26 0 14.1 7.6 25 21.9 25 8.6 0 12.9-3.5 15.2-7.1 0.2 3.2 0.4 5.3 0.7 6.3h5.6z"/>
			<path id="&lt;Compound Path&gt;" fill-rule="evenodd" class="s1" d="m810.9 237.1h-7.9l-2.8-13.2h-11.6l-2.8 13.2h-7.5l11.3-48.3h9.7zm-12-19.8c-2.2-10.1-3.7-17.2-4.4-21.5h-0.3c-0.5 4.4-2.2 12.1-4.2 21.5z"/>
			<path id="&lt;Path&gt;" class="s1" d="m864.4 212.5q-0.2 1.5-0.2 3c0 12.4 10.1 22.5 22.5 22.5 12.5 0 22.6-10.1 22.6-22.5q0-1.5-0.2-3c-1.5 11.1-10.9 19.6-22.4 19.6-11.4 0-20.9-8.5-22.3-19.6z"/>
			<path id="&lt;Path&gt;" class="s1" d="m886.7 192.9c11.5 0 20.9 8.5 22.4 19.6q0.2-1.5 0.2-3c0-12.4-10.1-22.5-22.6-22.5-12.4 0-22.5 10.1-22.5 22.5q0 1.5 0.2 3c1.4-11.1 10.9-19.6 22.3-19.6z"/>
			<path id="&lt;Path&gt;" class="s2" d="m886.7 180.7c11.5 0 20.9 8.6 22.4 19.6q0.2-1.4 0.2-2.9c0-12.5-10.1-22.6-22.6-22.6-12.4 0-22.5 10.1-22.5 22.6q0 1.5 0.2 2.9c1.4-11 10.9-19.6 22.3-19.6z"/>
		</g>
		<g id="&lt;Group&gt;">
			<path id="&lt;Compound Path&gt;" fill-rule="evenodd" class="s3" d="m783.2 144.3h3.1l5 13.5h-3.1l-1-3h-5l-1.1 3h-3zm-0.3 8.3h3.5l-1.7-4.9z"/>
			<path id="&lt;Compound Path&gt;" class="s3" d="m797.5 148h2.6v1.4c0.7-1 1.7-1.6 3-1.6 1.2 0 2.3 0.4 2.9 1.6 0.5-0.8 1.6-1.6 2.9-1.6 2.1 0 3.6 0.9 3.6 3.5v6.5h-2.7v-5.5c0-1.3-0.1-2.4-1.6-2.4-1.6 0-1.8 1.2-1.8 2.5v5.4h-2.7v-5.5c0-1.1 0.1-2.4-1.7-2.4-0.5 0-1.8 0.3-1.8 2.3v5.6h-2.7z"/>
			<path id="&lt;Compound Path&gt;" fill-rule="evenodd" class="s3" d="m816.8 153.6c0.1 1.7 0.9 2.5 2.4 2.5 1.1 0 2-0.7 2.1-1.3h2.4c-0.7 2.3-2.4 3.3-4.6 3.3-3.1 0-5-2.1-5-5.2 0-2.9 2.1-5.1 5-5.1 3.4 0 5 2.8 4.8 5.8zm4.4-1.7c-0.3-1.4-0.9-2.1-2.2-2.1-1.7 0-2.2 1.3-2.2 2.1z"/>
			<path id="&lt;Compound Path&gt;" class="s3" d="m825.5 148h2.6v1.4c0.7-1 1.7-1.6 3-1.6 1.2 0 2.3 0.4 2.9 1.6 0.5-0.8 1.6-1.6 2.9-1.6 2.1 0 3.6 0.9 3.6 3.5v6.5h-2.7v-5.5c0-1.3-0.1-2.4-1.6-2.4-1.6 0-1.8 1.2-1.8 2.5v5.4h-2.7v-5.5c0-1.1 0-2.4-1.7-2.4-0.5 0-1.8 0.3-1.8 2.3v5.6h-2.7z"/>
			<path id="&lt;Compound Path&gt;" fill-rule="evenodd" class="s3" d="m842.6 144.3h2.7v4.9c0.7-1 1.9-1.4 3.1-1.4 2 0 4.1 1.5 4.1 5.1 0 3.6-2.1 5.2-4.1 5.2-1.4 0-2.6-0.4-3.2-1.5v1.2h-2.6zm4.9 5.5c-1.6 0-2.3 1.5-2.3 3.2 0 1.6 0.7 3.1 2.3 3.1 1.6 0 2.3-1.5 2.3-3.1 0-1.7-0.7-3.2-2.3-3.2z"/>
			<path id="&lt;Compound Path&gt;" fill-rule="evenodd" class="s3" d="m856.4 153.6c0.1 1.7 0.9 2.5 2.4 2.5 1.1 0 1.9-0.7 2.1-1.3h2.4c-0.8 2.3-2.4 3.3-4.6 3.3-3.1 0-5-2.1-5-5.2 0-2.9 2-5.1 5-5.1 3.3 0 4.9 2.8 4.7 5.8zm4.4-1.7c-0.2-1.4-0.8-2.1-2.1-2.1-1.7 0-2.2 1.3-2.3 2.1z"/>
			<path id="&lt;Compound Path&gt;" class="s3" d="m865 148h2.6v1.9c0.5-1.3 1.8-2.1 3.1-2.1 0.2 0 0.5 0 0.6 0.1v2.5c-0.2-0.1-0.6-0.1-0.9-0.1-2 0-2.7 1.4-2.7 3.1v4.4h-2.7z"/>
			<path id="&lt;Compound Path&gt;" fill-rule="evenodd" class="s3" d="m882.4 147.8c3.1 0 5.1 2 5.1 5.1 0 3.1-2 5.2-5.1 5.2-3.1 0-5.1-2.1-5.1-5.2 0-3.1 2-5.1 5.1-5.1zm0 8.3c1.8 0 2.4-1.6 2.4-3.2 0-1.5-0.6-3.1-2.4-3.1-1.8 0-2.4 1.6-2.4 3.1 0 1.6 0.6 3.2 2.4 3.2z"/>
			<path id="&lt;Compound Path&gt;" class="s3" d="m889.8 149.8h-1.6v-1.8h1.6v-0.7c0-1.7 1.1-3 3.3-3 0.4 0 0.9 0.1 1.4 0.1v2q-0.5-0.1-1-0.1c-0.7 0-1 0.3-1 1.2v0.5h1.8v1.8h-1.8v8h-2.7z"/>
		</g>
		<g id="&lt;Group&gt;">
			<path id="&lt;Path&gt;" class="s4" d="m28.5 118.1c0.5 0.5 17.6-27.3 62.9-47.7 72.5-32.6 144.1-32.9 221.2-34.2 120.7 5.6 239.9 30.7 314.9 89l-144 0.9c-99.4-59.8-323.8-120.7-443.7-18.7-3.7 3.1-7 7-11.3 10.7z"/>
			<path id="&lt;Path&gt;" class="s4" d="m511.4 146.8q67.5-0.5 135-0.9c4.2 4.5 7.1 9.7 9 15.3-43.3-0.3-86.4-0.6-129.5-0.9-4.9-5.1-9.7-9.6-14.5-13.5z"/>
			<path id="&lt;Path&gt;" class="s4" d="m536.6 172.9c3.6 5.3 6.9 10.4 8.1 14.4 38.3 0 76.8 0 115.2 0q1.3-6.8-0.9-13.5-61.2-0.4-122.4-0.9z"/>
			<path id="&lt;Path&gt;" class="s4" d="m547.4 199.9h108c-2.3 19.9-18.4 41.5-64.8 59.4-19.7 9.2-42.1 14.1-66.6 16.1-38.9 3.9-75.1 3.6-109.3 2.7 3.4-0.8 6.8-2.5 10.3-3.1 24.9-4.1 54.7-3 79.7-19.3 40.4-24.5 43.6-43.6 42.7-55.8z"/>
			<path id="&lt;Compound Path&gt;" fill-rule="evenodd" class="s4" d="m49.3 119.1h36.2l-21 119.6h-36.1zm119.3 88.9l8 8.2c-5.4 5.9-20 22.3-46.5 22.3-30.5 0-47.3-19.4-42.5-46.2 4.7-27.2 28.7-46.7 57-46.7 11.9 0 19.8 3.8 25.6 7.2 22.5 12.9 16.5 36 12.5 47.2h-58.6c-0.1 5-0.8 11.5 5.4 14.9 20.2 11.1 34.9-0.1 39.1-6.9zm-42.7-25.8h27.5c0.7-5.3 0.3-16.8-11.1-16.8-10.5 0-14.5 10.8-16.4 16.8zm115.9-17c7-10.8 15.4-18.5 27.3-18.5 2.2 0 5.3 0.6 7.1 0.9l-4.7 31.1c-4.3-2.7-1.8-5.1-10-5.9-7.5-0.9-19.5 1.7-22.6 3.9l-11.2 62h-35.9l16.1-89.2h35.8zm93.7-19.6c36 0 46.7 24.9 42.7 46.6-4.1 23.5-24.7 46.9-59.8 46.9-31.3 0-46.6-20.3-42-46.4 4.7-26.8 27.7-47.1 59.1-47.1zm-2.9 19.3c-12.9 0-16.9 20.2-18.1 26.5-3.2 18.6-1 28.4 8.1 28.4 7.9 0 11.4-6.8 12.6-9 2.6-5.1 4.5-12.3 5.6-18.2 0.6-3.1 2.6-14.9 0.2-21.8-0.7-2-2.3-5.9-8.4-5.9zm55.5-17.6h40.8c2.2 15.7 11.4 36.4 11.7 50.8 7.6-14.4 6.9-19.9 19.6-50.3l33.7-0.9-41.9 86.6c-6.8 14-15.4 28.3-29.3 36.4-14.1 8-36.6 10-47 9.8l0.7-14.3c18.1-1.3 32.6-14.3 39.6-31.2z"/>
			<path id="&lt;Compound Path&gt;" fill-rule="evenodd" class="s5" d="m86.7 253.5h7.6l11.5 25.6h-10.2l-1.3-3.5h-10l-1.4 3.5h-8.2zm2.7 9.7l-2.9 7.2h5.6zm17.7-9.7h10.4v16.5c0 1 0 4.3 3.6 4.3 2.4 0 3.5-1.7 4.1-2.7v-18.1h10.4v25.6h-10.4v-3.4c-1.2 1.4-3.4 4.3-8.9 4.3-4.7 0-6.5-2.1-7.1-2.8-2.1-2.2-2.1-4.3-2.1-6.5zm31.5 0h24.4v5.8h-6.9v19.8h-10.4v-19.8h-7.1zm51.5 3.5c1.4 1.3 3.8 3.8 3.8 9.2 0 6.7-3.9 9.6-5.9 10.9-2.9 1.8-5.9 2.5-9.3 2.5-9.1 0-15.6-5.1-15.6-13.5 0-7.4 5.6-13.1 15.4-13.2 3.3 0 7.7 0.5 11.6 4.1zm-15.8 4.4c-0.5 1.6-0.6 3.9-0.6 4.9 0 4.1 1 8 4.8 8 4.6 0 4.7-5.3 4.7-7.9 0-1.7-0.1-3.4-0.6-4.9-0.7-2-1.9-3.2-4.3-3.2-1.6 0-3.2 0.6-4 3.1zm24.7-7.9h8.7l5.7 13.5 6-13.5h8.5l4.4 25.5h-9.3l-1.7-13.1-5.6 13.1h-6.2l-5.6-13.1-1.4 13.1h-7.7zm35.3 25.6l12.6-25.6h7.6l11.6 25.6h-10.2l-1.4-3.5h-9.9l-1.5 3.5zm15.4-15.9l-3 7.2h5.7zm12.1-9.6h24.3v5.7h-6.9v19.8h-10.3v-19.8h-7.1zm27.1 0h10.5v25.6h-10.5zm40.3 3.5c1.4 1.3 3.9 3.8 3.9 9.2 0 6.7-4 9.6-6 10.9-3 1.9-5.9 2.5-9.3 2.5-9 0-15.7-5-15.7-13.5 0-7.3 5.6-13.1 15.5-13.2 3.4 0 7.8 0.5 11.6 4.1zm-15.7 4.4c-0.6 1.7-0.7 3.9-0.7 4.9 0 4.2 0.9 8 4.9 8 4.4 0 4.5-5.3 4.5-7.9 0-1.7-0.1-3.3-0.5-4.9-0.7-2-2-3.2-4.3-3.2-1.7 0-3.3 0.7-3.9 3.1zm22.7-7.9h6.4l12.2 12.1v-12.1h7.6v25.6h-5.4l-13.2-13v13h-7.6z"/>
		</g>
	</g>
</svg>