<svg version="1.1" id="Layer_1" xmlns="http://www.w3.org/2000/svg" x="0" y="0" width="1097.7" height="333.1" xml:space="preserve"><style>.st1{fill:#ff6c37}.st2{fill:#1c272b}</style><g id="Layer_2-2"><path d="M186.7 9.3C99.7-1.9 20.1 59.6 9 146.6s50.3 166.6 137.3 177.7C233.3 335.5 312.9 274 324 187v-.2c11.1-87-50.4-166.4-137.3-177.5z" fill="#fff"/><path d="M419.2 113.7h-27.1c-1.3-.1-2.6.4-3.5 1.2-.9.7-1.4 1.8-1.4 3v96c0 1.3.8 2.6 2 3.2 2.6 1.6 5.9 1.6 8.5 0 1.3-.6 2.1-1.8 2.1-3.2v-37.2h18.6c8.1.4 16.1-2.3 22.4-7.5 6.1-6.3 9.2-14.9 8.5-23.6v-1.3c.8-8.5-2.1-17-7.9-23.3-6.3-5.2-14.2-7.8-22.2-7.3zm18.6 33c.4 5.5-1.4 11-4.9 15.2-3.9 3.8-9.1 5.7-14.5 5.4h-18.6v-42.8h18.6c5.2-.3 10.3 1.6 14 5.1 3.6 4.2 5.4 9.7 4.9 15.2l.5 1.9zM500 120.8c-6.1 6.3-9.1 15-8.4 23.7v43.1c-.8 8.8 2.3 17.4 8.4 23.8 13.3 10.1 31.7 10.1 45 0 6.2-6.3 9.3-15 8.5-23.8v-42.8c.9-8.9-2.2-17.7-8.5-24.1-13.3-10-31.7-10-45 .1zm41.4 66.9c.5 5.6-1.3 11.1-4.9 15.3-3.7 3.6-8.8 5.4-13.9 5.1-12.6 0-18.6-6.9-18.6-20.5v-42.8c0-13.6 6.2-20.4 18.6-20.4 5.2-.3 10.2 1.5 13.9 5.1 3.6 4.2 5.4 9.7 4.9 15.2v43zM641.5 162c-4.7-2.1-9.3-4-13.9-5.7-4.3-1.4-8.4-3.6-11.9-6.5-3.2-2.6-4.9-6.7-4.6-10.8-.4-4.5 1.7-8.8 5.4-11.3 4.2-2.5 9.1-3.7 13.9-3.4 4.6-.1 9.2.8 13.4 2.7 2.1 1 4.2 1.9 6.4 2.6 1.6 0 3-.9 3.7-2.3.8-1.3 1.4-2.8 1.5-4.3 0-2.9-2.8-5.3-8.2-7.1-5.5-1.7-11.2-2.6-17-2.5-3.7 0-7.4.4-11 1.3-3.5.9-6.9 2.2-10 4.1-3.3 2-5.9 4.9-7.6 8.4-2 4.1-3 8.6-2.9 13.2-.2 5.6 1.5 11.2 4.8 15.7 3.1 4 7.2 7.2 11.9 9.3 4.7 2 9.3 3.8 13.9 5.5 4.4 1.6 8.5 4.2 11.8 7.5 3.3 3.5 5 8.1 4.8 12.8.4 5-1.6 9.9-5.3 13.3-4.2 3.3-9.4 4.8-14.7 4.5-3.6.1-7.1-.5-10.4-1.8-2.5-.8-4.8-2.2-6.8-4l-4.5-4.3c-.9-.9-2.1-1.6-3.3-1.8-1.4.1-2.7.9-3.4 2.1-1 1.3-1.6 2.8-1.7 4.5 0 3.4 3 7 9.3 10.5 6.5 3.8 14 5.7 21.6 5.4 8.3.4 16.4-2.3 22.8-7.5 6.1-5.8 9.2-14 8.6-22.3.6-11.8-5.9-22.8-16.6-27.8zM756.6 113.7h-58.4c-1.3 0-2.4.6-3.2 1.6-1.6 2.3-1.6 5.4 0 7.7.7 1 1.9 1.6 3.2 1.6h23.2v89.3c0 1.3.7 2.5 1.8 3.2 2.6 1.6 5.9 1.6 8.5 0 1.2-.6 1.9-1.8 1.9-3.2v-89.3h22.9c1.3.1 2.5-.6 3.2-1.7.8-1.1 1.2-2.5 1.1-3.9 0-1.3-.3-2.6-1.1-3.7-.8-1-1.9-1.6-3.1-1.6zM872.3 113.7c-3.6 0-6.8 2.5-9.3 7.6l-22.7 43.1-22.5-43.1c-2.6-5.1-5.8-7.6-9.3-7.6H806c-2.8.5-4.7 3.2-4.3 6v94.1c0 1.4.7 2.7 2 3.3 1.3.8 2.8 1.2 4.3 1.1 1.4 0 2.8-.5 4-1.3 1.2-.6 1.9-1.8 1.9-3.2v-75.6l21.7 41.4c.6 2 2.3 3.4 4.4 3.5 2.2-.1 4-1.5 4.7-3.5l21.7-40.7v74.9c0 1.3.7 2.5 1.8 3.2 2.6 1.5 5.8 1.5 8.5 0 1.2-.6 1.9-1.8 1.9-3.2v-94.3c.1-.5.1-1 0-1.5-.7-2.7-3.4-4.7-6.3-4.2zM956.5 113.8c-4.1 0-6.5 1.4-7.3 4.1l-29.4 94.5c-.1.4-.1.7 0 1.1 0 1.6.9 3.1 2.3 3.8 1.5.9 3.2 1.4 4.9 1.4 1.9.3 3.8-.9 4.4-2.8l6.2-20.9h37.2l6.2 20.9c.6 1.8 2.5 3 4.4 2.7 1.8.1 3.7-.4 5.2-1.4 1.4-.6 2.3-1.9 2.3-3.4m.1-.4v-.5l-29.4-95c-.7-2.7-3.1-4.1-7.2-4.1l36.6 99.6zm-52.6-28.6l16-53.6 16.1 53.6h-32.1zM1096 114.7c-2.6-1.5-5.8-1.5-8.5 0-1.1.6-1.8 1.8-1.9 3.1v73.5l-35.7-69.9c-.9-2.2-2.3-4.2-4-5.9-1.4-1.2-3.2-1.8-5.1-1.8-4.1 0-6 1.4-6 4.2v96c-.1 1.3.6 2.5 1.8 3.2 2.6 1.6 5.9 1.6 8.5 0 1.1-.6 1.8-1.9 1.8-3.2V141l37.2 72.1c1.2 3.2 4.2 5.3 7.5 5.5 1.5 0 3-.4 4.3-1.2 1.1-.7 1.8-1.9 1.8-3.2v-96.4c0-1.3-.6-2.4-1.7-3.1z" class="st2"/><path class="st1" d="M261.8 83.7c-.9.4-1.4 1.5-1 2.4 0 .1.1.1.1.2 1 2 .8 4.5-.7 6.2-.7.7-.8 1.9-.1 2.6l.1.1c.4.1.9.1 1.3 0 .5 0 1.1-.3 1.4-.7 2.5-2.9 3-7 1.2-10.4-.5-.7-1.5-.9-2.3-.4z"/><path class="st1" d="M187.7 1.4C96.5-10.4 13.1 54.1 1.4 145.3S54.1 320 145.3 331.7 319.9 279 331.7 187.8C343.4 96.6 279 13.1 187.7 1.4c.1 0 .1 0 0 0zM222 105.2c-3.1.1-6 1.3-8.2 3.5L152 170.5l-13.2-13.2c60.8-60.7 71.9-61.3 83.2-52.1zm-67.5 67.5l61.6-61.2c3.4-3.3 8.8-3.3 12.2 0 1.7 1.7 2.6 4 2.5 6.3-.1 2.4-1.1 4.6-2.9 6.2l-65.1 57.4-8.3-8.7zm4.6 9.3l-15.3 3.9c-.3.2-.6.2-.9 0-.2-.3-.2-.7 0-1l9.3-9.3 6.9 6.4zm-39-6.4l16.3-16.3 12.3 12.6-27.9 6c-.6.1-1.2-.3-1.3-.9-.1-.4 0-.7.3-1l.3-.4zm-50.5 84.7c-.4-.1-.8-.4-.9-.7-.1-.4-.1-.8 0-1.1l13.1-13.2 17 16.9-29.2-1.9zm33.6-17.5c-1.3.7-2 2.1-1.7 3.5l2.8 12c.2.8-.2 1.6-.8 2-.6.5-1.5.5-2 0l-17-17.5 52.2-52.3 25.3-5.4 12.1 12.1c-21.6 18-45.4 33.3-70.8 45.4v.2h-.1zm73.4-47.6L165 183.6l65.1-57.3c.6-.5 1.2-1.1 1.7-1.8-2.1 18.6-28.3 45-55.2 70.7zm50.8-89.7c-9.7-10.1-9.3-26.1.8-35.8 9.2-8.8 23.4-9.4 33.3-1.4l-22.4 22.3c-.6.7-.6 1.7 0 2.4l17.4 17.3c-9.8 4.8-21.6 2.8-29.2-5l.1.2zm35.7 0c-1.2 1.1-2.4 2.2-3.8 3.1l-16.7-16.7 21.3-21.3c9.2 9.9 8.9 25.3-.8 34.9z"/></g></svg>