<svg xmlns="http://www.w3.org/2000/svg" viewBox="0 0 608.86 113.73">
  <defs>
    <style>
      .cls-1{fill:#221f20;}.cls-2{fill:#03a9f4;}.cls-3{fill:#fff;}
    </style>
  </defs>
  <path d="M161.17 39.96a17.7 17.7 0 0 0-5.49 6.47h-.25l-.38-7.53h-3.23v41.74h3.8v-23a18.47 18.47 0 0 1 3.4-11.44 10.51 10.51 0 0 1 8.75-4.53 22.24 22.24 0 0 1 5.41.65l.73-3.65a32.66 32.66 0 0 0-5.68-.54 12.86 12.86 0 0 0-7.06 1.83zm36.98-1.86a16.22 16.22 0 0 0-13.25 6q-4.92 6-4.92 16t5.09 15.71q5.09 5.61 14.19 5.61a36.23 36.23 0 0 0 6.6-.56 30.57 30.57 0 0 0 6.53-2.09v-3.46a38.15 38.15 0 0 1-6.85 2.15 35 35 0 0 1-6.28.5q-7.33 0-11.27-4.53t-4-13.13h30.07v-3.1q0-8.83-4.26-14t-11.65-5.1zm-13.94 18.82q.61-7.49 4.26-11.46a12.51 12.51 0 0 1 9.68-4 10.39 10.39 0 0 1 8.72 4.09q3.15 4.09 3.15 11.35h-25.8zm70.38-21.01q0 4.65.23 9.48h-.23a15.59 15.59 0 0 0-5.91-5.64 17.33 17.33 0 0 0-7.83-1.65q-8.64 0-13.17 5.72t-4.53 16.55q0 10.29 4.57 15.67t13.21 5.38a15.45 15.45 0 0 0 13.67-7.14h.31l1 6.37h2.5V20.9h-3.76v15zm0 24.46q0 9.45-3.3 13.55t-10.37 4.11q-13.79 0-13.79-17.74 0-9.14 3.44-13.94t10.27-4.8q7.26 0 10.5 4.24t3.24 13.92v.65zm19.66-36.75q-2.42 0-2.42 3.69t2.42 3.72a2.13 2.13 0 0 0 1.86-1 4.83 4.83 0 0 0 .67-2.73 4.71 4.71 0 0 0-.67-2.73 2.15 2.15 0 0 0-1.86-.95zm-1.88 15.29h3.8v41.74h-3.8zm27.15 1.05a17.7 17.7 0 0 0-5.49 6.47h-.27l-.38-7.53h-3.23v41.74h3.8v-23a18.47 18.47 0 0 1 3.42-11.44 10.51 10.51 0 0 1 8.75-4.53 22.24 22.24 0 0 1 5.41.65l.73-3.65a32.66 32.66 0 0 0-5.68-.54 12.86 12.86 0 0 0-7.06 1.83zm36.98-1.86a16.22 16.22 0 0 0-13.25 6q-4.92 6-4.92 16t5.1 15.71q5.09 5.61 14.19 5.61a36.23 36.23 0 0 0 6.6-.56 30.57 30.57 0 0 0 6.53-2.09v-3.46a38.15 38.15 0 0 1-6.85 2.15 35 35 0 0 1-6.28.5q-7.33 0-11.27-4.53t-4-13.13h30.08v-3.1q0-8.83-4.26-14t-11.67-5.1zm-13.94 18.82q.61-7.49 4.26-11.46a12.51 12.51 0 0 1 9.68-4 10.39 10.39 0 0 1 8.72 4.09q3.15 4.09 3.15 11.35h-25.8zm58.52-15.36a30.43 30.43 0 0 1 9.41 1.8l1-3.38a29 29 0 0 0-10.37-1.88q-9.14 0-14.4 5.78t-5.26 16.15q0 10.1 5.07 15.74t14 5.64a23.93 23.93 0 0 0 10.48-2v-3.53a27.14 27.14 0 0 1-10.56 2q-7.1 0-11.06-4.78t-4-13.23q0-8.91 4-13.65t11.69-4.66zM407 75.73q-1.69-2.3-1.69-7.1V42.2h12.25v-3.3h-12.25V28.81h-2l-1.88 9.44-6.18 1.73v2.22h6.18v27q0 6.34 2.63 9.29t8.16 3a20.15 20.15 0 0 0 6.37-.92V77.5a28.51 28.51 0 0 1-6.3.61 6.13 6.13 0 0 1-5.29-2.38zm20.62-36.82h3.8v41.74h-3.8zm1.88-15.29q-2.42 0-2.42 3.69t2.42 3.72a2.13 2.13 0 0 0 1.86-1 4.83 4.83 0 0 0 .67-2.73 4.71 4.71 0 0 0-.67-2.73 2.15 2.15 0 0 0-1.86-.95zm32.03 14.48q-8.64 0-13.59 5.7t-5 15.92a27.66 27.66 0 0 0 2.27 11.48 17 17 0 0 0 6.41 7.6 17.7 17.7 0 0 0 9.68 2.65q8.72 0 13.67-5.74t5-16q0-10.06-4.9-15.84t-13.54-5.77zm10.62 35q-3.78 4.82-10.69 4.82t-10.69-4.82q-3.78-4.82-3.78-13.42t3.74-13.42q3.74-4.74 10.66-4.74t10.73 4.76q3.82 4.76 3.82 13.4t-3.8 13.46zm37.99-35q-10.41 0-14.48 6.53h-.23l-.73-5.72h-3.27v41.74h3.8v-23q0-8.49 3.48-12.27t11-3.78q5.57 0 8.22 2.86t2.65 9.16v27.07h3.76V53.34q.01-15.24-14.2-15.24zm30.03 35.79q-3.07 0-3.07 3.76t3.07 3.76q3.15 0 3.15-3.76t-3.15-3.76zm18.26-50.27q-2.42 0-2.42 3.69t2.42 3.73a2.13 2.13 0 0 0 1.86-1 4.83 4.83 0 0 0 .67-2.73 4.71 4.71 0 0 0-.67-2.73 2.15 2.15 0 0 0-1.86-.96zm-1.87 15.29h3.8v41.74h-3.8zm47.41 4.97q-4.9-5.78-13.5-5.78t-13.59 5.7q-5 5.7-5 15.92a27.66 27.66 0 0 0 2.27 11.48 17 17 0 0 0 6.41 7.6 17.7 17.7 0 0 0 9.68 2.65q8.72 0 13.67-5.74t5-16q-.05-10.05-4.94-15.83zm-2.88 29.26q-3.78 4.82-10.69 4.82t-10.69-4.82q-3.78-4.82-3.78-13.42t3.74-13.42q3.74-4.74 10.66-4.74t10.73 4.76q3.82 4.76 3.82 13.4t-3.79 13.42z" class="cls-1"/>
  <circle cx="56.87" cy="56.87" r="56.87" class="cls-2"/>
  <path d="M86.73 69.99a3.536 3.536 0 1 0-5 5l.42.42c-7.46-1.38-14.4-6.09-19.9-13.59l-3.17-4.32 3.17-4.32c5.51-7.5 12.45-12.21 19.9-13.59l-.42.42a3.536 3.536 0 0 0 5 5l6.86-6.86a3.52 3.52 0 0 0 0-5l-6.86-6.86a3.536 3.536 0 0 0-5 5l1.1 1.1c-9.91 1.25-19.31 7.16-26.27 16.65l-1.86 2.54-1.86-2.54C44.98 38.2 33.96 32.08 22.63 32.08a3.52 3.52 0 0 0 0 7c9.2 0 17.91 5 24.55 14l3.17 4.32-3.17 4.32c-6.64 9-15.35 14-24.55 14a3.52 3.52 0 0 0 0 7c11.33 0 22.35-6.16 30.23-16.9l1.86-2.54 1.86 2.54c7 9.48 16.36 15.39 26.27 16.65l-1.1 1.1a3.536 3.536 0 1 0 5 5l6.86-6.86a3.52 3.52 0 0 0 0-5z" class="cls-3"/>
</svg>
